<?xml version="1.0" standalone="no"?>
<!DOCTYPE svg PUBLIC "-//W3C//DTD SVG 1.1//EN" "http://www.w3.org/Graphics/SVG/1.1/DTD/svg11.dtd" >
<!--
2013-9-30: Created.
-->
<svg>
<metadata>
Created by iconfont
</metadata>
<defs>

<font id="iconfont" horiz-adv-x="1024" >
  <font-face
    font-family="iconfont"
    font-weight="500"
    font-stretch="normal"
    units-per-em="1024"
    ascent="896"
    descent="-128"
  />
    <missing-glyph />
    
    <glyph glyph-name="16_GJWETLqushu1" unicode="&#59503;" d="M896 896c70.4 0 128-57.6 128-128v-768c0-70.4-57.6-128-128-128H128c-70.4 0-128 57.6-128 128V768C0 838.4 57.6 896 128 896h768z m6.4-57.6H595.2c0-6.4 6.4-12.8 0-19.2 0-12.8-12.8-25.6-32-25.6-12.8 12.8-32 12.8-51.2 12.8-6.4 0-12.8 0-19.2 6.4 0 6.4 6.4 6.4 6.4 12.8V832 838.4h-12.8V832c0-6.4 0-12.8 6.4-19.2-6.4-6.4-12.8-6.4-19.2-6.4-19.2 0-38.4-6.4-57.6-6.4-12.8-6.4-25.6 0-32 12.8 0 12.8 0 19.2 6.4 25.6H121.6c-38.4 0-64-25.6-64-64v-294.4c6.4 6.4 12.8 12.8 19.2 6.4 12.8 0 25.6-19.2 19.2-32 0-19.2-6.4-38.4-6.4-57.6 0-12.8-12.8-25.6-25.6-25.6H57.6v-83.2c0 6.4 6.4 12.8 12.8 12.8 12.8 6.4 32-6.4 32-19.2l19.2-57.6c6.4-12.8 0-32-12.8-38.4-12.8-6.4-32 0-38.4 12.8-6.4 12.8-12.8 32-19.2 44.8v-256c0-38.4 25.6-64 64-64h358.4v6.4c0 12.8 12.8 25.6 25.6 25.6H550.4c12.8 0 25.6-6.4 32-25.6v-12.8h320c38.4 0 64 25.6 64 64v256-6.4c-6.4-12.8-19.2-25.6-32-19.2s-25.6 19.2-19.2 32c6.4 19.2 12.8 38.4 12.8 57.6 0 12.8 19.2 25.6 32 25.6h6.4V396.8H960c-12.8 0-25.6 6.4-32 25.6 0 19.2-6.4 38.4-12.8 57.6-6.4 12.8 6.4 32 19.2 32 12.8 6.4 25.6 0 32-12.8V761.6c0 51.2-25.6 76.8-64 76.8z m-576-832c19.2-6.4 38.4-19.2 57.6-19.2 12.8-6.4 19.2-19.2 19.2-32-6.4-19.2-19.2-25.6-38.4-25.6-19.2 6.4-44.8 12.8-64 25.6-12.8 6.4-19.2 25.6-12.8 38.4s25.6 19.2 38.4 12.8z m441.6 12.8c6.4-12.8 6.4-32-6.4-38.4-19.2-12.8-38.4-19.2-57.6-32-12.8-6.4-32 0-38.4 12.8-6.4 12.8 0 32 12.8 38.4 19.2 6.4 38.4 19.2 51.2 25.6 12.8 6.4 32 6.4 38.4-6.4z m-582.4 96c12.8-12.8 25.6-32 38.4-44.8 12.8-12.8 12.8-25.6 0-38.4-12.8-12.8-25.6-12.8-38.4 0-19.2 12.8-32 32-44.8 51.2-6.4 12.8-6.4 25.6 6.4 38.4 12.8 6.4 32 6.4 38.4-6.4z m716.8 44.8c12.8-6.4 12.8-25.6 6.4-38.4-12.8-19.2-25.6-38.4-44.8-51.2-12.8-12.8-25.6-12.8-38.4 0-12.8 12.8-12.8 25.6 0 38.4 12.8 12.8 25.6 32 38.4 44.8 6.4 6.4 25.6 12.8 38.4 6.4zM160 659.2c12.8-6.4 12.8-25.6 6.4-38.4-12.8-12.8-19.2-32-32-51.2-6.4-12.8-19.2-19.2-38.4-6.4-12.8 6.4-12.8 19.2-6.4 32 12.8 19.2 19.2 38.4 32 57.6 6.4 12.8 25.6 19.2 38.4 6.4z m710.4 32l38.4-57.6c6.4-12.8 6.4-32-6.4-38.4-12.8-6.4-32-6.4-38.4 6.4-6.4 25.6-19.2 38.4-32 57.6-12.8 12.8-6.4 25.6 0 38.4s32 6.4 38.4-6.4zM307.2 787.2c6.4-19.2 6.4-32-6.4-38.4-19.2-12.8-38.4-25.6-51.2-38.4-12.8-6.4-32-6.4-38.4 6.4s-6.4 32 6.4 38.4c12.8 12.8 32 25.6 51.2 38.4 12.8 6.4 32 6.4 38.4-6.4z m403.2 25.6c19.2-6.4 38.4-19.2 57.6-32 12.8-6.4 19.2-25.6 6.4-38.4-6.4-12.8-25.6-19.2-38.4-6.4-12.8 12.8-32 19.2-44.8 32-12.8 6.4-19.2 25.6-12.8 38.4s19.2 12.8 32 6.4zM300.8 121.6h6.4c12.8 0 32 6.4 38.4 19.2 6.4 12.8 12.8 32 6.4 44.8l32 25.6 147.2-70.4h12.8l147.2 70.4 32-25.6c-6.4-12.8 0-32 6.4-44.8 6.4-12.8 25.6-19.2 38.4-19.2h6.4c19.2 0 32 12.8 38.4 32 6.4 19.2 6.4 38.4-6.4 51.2-12.8 12.8-32 19.2-44.8 19.2-6.4 0-12.8-6.4-19.2-6.4l-32 25.6V422.4c0 6.4-6.4 12.8-12.8 19.2l-134.4 64v38.4c19.2 6.4 32 32 32 51.2-6.4 25.6-25.6 44.8-51.2 44.8s-44.8-19.2-51.2-38.4c-6.4-25.6 6.4-51.2 32-57.6v-38.4L377.6 435.2c-6.4 0-12.8-6.4-12.8-19.2v-179.2l-32-25.6c-6.4 6.4-12.8 6.4-19.2 6.4-25.6 6.4-51.2-12.8-57.6-44.8-6.4-19.2 12.8-44.8 44.8-51.2z m102.4 268.8l121.6-57.6v-147.2l-121.6 57.6V390.4z m140.8-25.6l-115.2 57.6 115.2 51.2 115.2-51.2-115.2-57.6z m19.2-179.2V332.8l121.6 57.6v-147.2l-121.6-57.6z m204.8-6.4c0 6.4 6.4 6.4 12.8 6.4s12.8-6.4 12.8-12.8 0-12.8-6.4-19.2c-6.4-6.4-12.8 0-19.2 6.4s-6.4 19.2 0 19.2zM544 601.6c6.4 0 12.8-6.4 12.8-12.8s-6.4-12.8-12.8-12.8-19.2 6.4-19.2 12.8 12.8 12.8 19.2 12.8z m-249.6-416h6.4c6.4 0 12.8-6.4 12.8-12.8s0-12.8-6.4-12.8c-6.4-6.4-19.2-6.4-19.2 6.4 0 6.4 0 12.8 6.4 19.2z"  horiz-adv-x="1024" />

    
    <glyph glyph-name="16_GJWzhuxiao" unicode="&#59498;" d="M492.8 288c-6.4 6.4-6.4 12.8-6.4 19.2V864c0 6.4 0 12.8 6.4 19.2S505.6 896 512 896c6.4 0 12.8-6.4 19.2-6.4 6.4-6.4 6.4-12.8 6.4-19.2v-556.8c0-6.4 0-12.8-6.4-19.2 0-12.8-6.4-12.8-19.2-12.8-6.4 0-12.8 0-19.2 6.4z m172.8 454.4h-19.2c-6.4 0-12.8-6.4-12.8-12.8-6.4-12.8 0-32 19.2-38.4 185.6-70.4 281.6-288 211.2-480-38.4-108.8-128-192-236.8-224-6.4 0-12.8-6.4-12.8-6.4-6.4 0-12.8 0-19.2-6.4H441.6c-12.8 0-25.6 6.4-32 6.4-108.8 32-198.4 115.2-236.8 224-70.4 198.4 25.6 409.6 211.2 486.4 12.8 6.4 19.2 19.2 19.2 38.4 0 6.4-6.4 12.8-12.8 12.8s-12.8 6.4-19.2 0C153.6 659.2 44.8 409.6 128 185.6c44.8-115.2 128-204.8 243.2-249.6h6.4s6.4 0 19.2-6.4c6.4 0 12.8-6.4 19.2-6.4 6.4 0 12.8-6.4 19.2-6.4 6.4 0 12.8 0 19.2-6.4h115.2c6.4 0 12.8 0 19.2 6.4 6.4 0 12.8 0 19.2 6.4 6.4 0 12.8 6.4 19.2 6.4 6.4 0 12.8 6.4 19.2 6.4h6.4c115.2 44.8 198.4 134.4 243.2 249.6 96 224-12.8 473.6-230.4 556.8z"  horiz-adv-x="1024" />

    
    <glyph glyph-name="16_GJWchaxuntiaojian" unicode="&#59499;" d="M435.2 0c25.6-25.6 51.2-44.8 83.2-64h-256c-70.4 0-128 57.6-128 128l-6.4 38.4h64v-38.4c0-38.4 25.6-64 64-64h179.2z m-102.4 236.8c0-19.2 0-44.8 6.4-64H236.8c-6.4 0-12.8 6.4-12.8 12.8v38.4c0 6.4 6.4 12.8 12.8 12.8h96z m-172.8 0c6.4 0 12.8-6.4 12.8-12.8v-38.4c0-6.4-6.4-12.8-12.8-12.8H76.8c-6.4 0-12.8 6.4-12.8 12.8v38.4c0 6.4 6.4 12.8 12.8 12.8h83.2z m211.2 160c-12.8-19.2-19.2-44.8-25.6-64h-32c-6.4 0-12.8 6.4-12.8 12.8V384c0 6.4 6.4 12.8 12.8 12.8h57.6z m-128 0c6.4 0 12.8-6.4 12.8-12.8v-38.4c0-6.4-6.4-12.8-12.8-12.8H153.6c-6.4 0-12.8 6.4-12.8 12.8V384c0 6.4 6.4 12.8 12.8 12.8h89.6z m-147.2 0c6.4 0 12.8-6.4 12.8-12.8v-38.4c0-6.4-6.4-12.8-12.8-12.8H12.8c-6.4 0-12.8 6.4-12.8 12.8V384c0 6.4 6.4 12.8 12.8 12.8h83.2z m70.4 160c6.4 0 12.8-6.4 12.8-12.8v-38.4c0-6.4-6.4-12.8-12.8-12.8H83.2c-6.4 0-12.8 6.4-12.8 12.8v38.4c0 6.4 6.4 12.8 12.8 12.8h83.2z m358.4 0c-32-19.2-64-38.4-89.6-64H236.8c-6.4 0-12.8 6.4-12.8 12.8v38.4c0 6.4 6.4 12.8 12.8 12.8h288zM768 896c70.4 0 128-57.6 128-128v-243.2c-19.2 12.8-38.4 25.6-64 38.4V768c0 38.4-25.6 64-64 64H256c-38.4 0-64-25.6-64-64v-140.8H121.6L128 768c0 70.4 57.6 128 128 128h512zM691.2 512c134.4 0 243.2-108.8 243.2-256 0-64-25.6-121.6-64-166.4l102.4-128c12.8-12.8 12.8-38.4 0-57.6-6.4-6.4-12.8-6.4-25.6-6.4-6.4 0-12.8 0-25.6 6.4l-121.6 128c-32-25.6-76.8-32-121.6-32-134.4 0-243.2 108.8-243.2 256s121.6 256 256 256z m6.4-57.6c-102.4 0-192-89.6-192-192s89.6-192 192-192 192 89.6 192 192-89.6 192-192 192z"  horiz-adv-x="1024" />

    
    <glyph glyph-name="16_NRQY_A_shibai" unicode="&#59500;" d="M409.6 896h19.2c6.4-6.4 12.8-12.8 12.8-19.2v-160l83.2-51.2 83.2 51.2V876.8c0 6.4 6.4 12.8 12.8 19.2h19.2c70.4-38.4 115.2-115.2 115.2-192l12.8 12.8c6.4 6.4 19.2 6.4 25.6 0l115.2-115.2c6.4-6.4 6.4-19.2 0-25.6l-38.4-38.4c19.2-32 32-64 44.8-102.4v6.4l-57.6 38.4c-6.4 19.2-19.2 32-25.6 44.8-6.4 6.4-6.4 19.2 0 25.6l32 32-83.2 83.2-32-32c-12.8-51.2-44.8-96-89.6-128-44.8-6.4-83.2-19.2-115.2-38.4H524.8c-32 0-57.6 6.4-83.2 12.8v-108.8c-19.2-25.6-32-51.2-44.8-83.2V499.2C352 531.2 320 582.4 300.8 633.6l-32 32-83.2-83.2 32-32c6.4-6.4 6.4-19.2 0-25.6-19.2-38.4-32-76.8-44.8-121.6 0-6.4-12.8-12.8-19.2-12.8h-51.2v-121.6h51.2c6.4 0 19.2-6.4 19.2-12.8 6.4-44.8 25.6-83.2 51.2-115.2 6.4-6.4 6.4-19.2 0-25.6l-32-32L275.2 0l32 32c6.4 6.4 19.2 6.4 25.6 0 38.4-25.6 76.8-38.4 121.6-51.2 6.4 0 12.8-12.8 12.8-19.2v-51.2h83.2c25.6-12.8 44.8-25.6 70.4-32 0 0-6.4-6.4-19.2-6.4H435.2c-6.4 0-6.4 0-12.8 6.4s-6.4 6.4-6.4 12.8v51.2c-38.4 6.4-70.4 25.6-102.4 44.8l-38.4-38.4c-6.4-6.4-19.2-6.4-25.6 0L140.8 64c-6.4 6.4-6.4 19.2 0 25.6l38.4 38.4c-19.2 32-32 64-44.8 102.4h-51.2c-6.4 0-12.8 0-12.8 6.4-6.4 6.4-6.4 6.4-6.4 12.8V409.6c0 12.8 6.4 19.2 19.2 19.2h51.2c6.4 38.4 25.6 70.4 44.8 102.4l-38.4 38.4c-6.4 6.4-6.4 19.2 0 25.6L256 710.4c6.4 6.4 19.2 6.4 25.6 0l12.8-12.8c0 83.2 44.8 153.6 115.2 198.4z m-38.4-780.8c6.4 6.4 12.8 12.8 19.2 6.4 6.4-19.2 6.4-38.4 19.2-51.2-12.8 6.4-19.2 12.8-32 12.8-12.8 6.4-12.8 19.2-6.4 32z m-70.4 64c6.4 6.4 19.2 6.4 25.6 0v-6.4c6.4-6.4 6.4-19.2 0-25.6 0-6.4-6.4-6.4-6.4-6.4-6.4 0-12.8 0-12.8 6.4-12.8 6.4-12.8 19.2-6.4 32z m-6.4 320c6.4 6.4 19.2 12.8 25.6 6.4 6.4-6.4 12.8-19.2 6.4-25.6-51.2-70.4-64-160-32-236.8 6.4-12.8 0-19.2-12.8-25.6h-6.4c-6.4 0-12.8 6.4-19.2 12.8-32 83.2-19.2 192 38.4 268.8z m672-70.4c12.8 0 19.2-6.4 19.2-19.2v-64c-19.2 32-38.4 57.6-64 83.2h44.8z m-339.2 25.6c6.4 0 12.8-6.4 12.8-6.4 6.4-6.4 6.4-6.4 6.4-12.8s0-12.8-6.4-12.8c0-6.4-6.4-12.8-12.8-12.8s-12.8 0-12.8 6.4c-6.4 6.4-6.4 12.8-6.4 12.8 0 6.4 0 12.8 6.4 12.8 6.4 6.4 6.4 12.8 12.8 12.8z m19.2 384v-128c0-6.4-6.4-12.8-12.8-19.2l-102.4-64H512l-102.4 64c-6.4 0-12.8 6.4-12.8 19.2v128c-38.4-38.4-64-89.6-64-140.8 0-102.4 83.2-185.6 192-185.6s192 83.2 192 185.6c-6.4 51.2-25.6 102.4-70.4 140.8zM704 448c140.8 0 256-115.2 256-256s-115.2-256-256-256-256 115.2-256 256 115.2 256 256 256zM614.4 313.6c-6.4 6.4-19.2 6.4-32 0-6.4-6.4-6.4-25.6 0-38.4l89.6-83.2-89.6-89.6c-6.4-6.4-6.4-25.6 0-32 6.4-6.4 25.6-6.4 32 0l89.6 89.6 89.6-83.2c6.4-6.4 25.6-6.4 32 0 6.4 6.4 6.4 25.6 0 32L736 192l89.6 83.2c6.4 6.4 6.4 25.6 0 38.4-6.4 6.4-25.6 6.4-32 0L704 224 614.4 313.6z"  horiz-adv-x="1024" />

    
    <glyph glyph-name="16_NRQY_A_xiufuchenggong" unicode="&#59501;" d="M409.6 896h19.2c6.4-6.4 12.8-12.8 12.8-19.2v-160l83.2-51.2 83.2 51.2V876.8c0 6.4 6.4 12.8 12.8 19.2h19.2c70.4-38.4 115.2-115.2 115.2-192l12.8 12.8c6.4 6.4 19.2 6.4 25.6 0l115.2-115.2c6.4-6.4 6.4-19.2 0-25.6l-38.4-38.4c19.2-32 32-64 44.8-102.4v6.4l-57.6 38.4c-6.4 19.2-19.2 32-25.6 44.8-6.4 6.4-6.4 19.2 0 25.6l32 32-83.2 83.2-32-32c-12.8-51.2-44.8-96-89.6-128-44.8-6.4-83.2-19.2-115.2-38.4H524.8c-32 0-57.6 6.4-83.2 12.8v-108.8c-19.2-25.6-32-51.2-44.8-83.2V499.2C352 531.2 320 582.4 300.8 633.6l-32 32-83.2-83.2 32-32c6.4-6.4 6.4-19.2 0-25.6-19.2-38.4-32-76.8-44.8-121.6 0-6.4-12.8-12.8-19.2-12.8h-51.2v-121.6h51.2c6.4 0 19.2-6.4 19.2-12.8 6.4-44.8 25.6-83.2 51.2-115.2 6.4-6.4 6.4-19.2 0-25.6l-32-32L275.2 0l32 32c6.4 6.4 19.2 6.4 25.6 0 38.4-25.6 76.8-38.4 121.6-51.2 6.4 0 12.8-12.8 12.8-19.2v-51.2h83.2c25.6-12.8 44.8-25.6 70.4-32 0 0-6.4-6.4-19.2-6.4H435.2c-6.4 0-6.4 0-12.8 6.4s-6.4 6.4-6.4 12.8v51.2c-38.4 6.4-70.4 25.6-102.4 44.8l-38.4-38.4c-6.4-6.4-19.2-6.4-25.6 0L140.8 64c-6.4 6.4-6.4 19.2 0 25.6l38.4 38.4c-19.2 32-32 64-44.8 102.4h-51.2c-6.4 0-12.8 0-12.8 6.4-6.4 6.4-6.4 6.4-6.4 12.8V409.6c0 12.8 6.4 19.2 19.2 19.2h51.2c6.4 38.4 25.6 70.4 44.8 102.4l-38.4 38.4c-6.4 6.4-6.4 19.2 0 25.6L256 710.4c6.4 6.4 19.2 6.4 25.6 0l12.8-12.8c0 83.2 44.8 153.6 115.2 198.4z m-38.4-780.8c6.4 6.4 12.8 12.8 19.2 6.4 6.4-19.2 6.4-38.4 19.2-51.2-12.8 6.4-19.2 12.8-32 12.8-12.8 6.4-12.8 19.2-6.4 32z m-70.4 64c6.4 6.4 19.2 6.4 25.6 0v-6.4c6.4-6.4 6.4-19.2 0-25.6 0-6.4-6.4-6.4-6.4-6.4-6.4 0-12.8 0-12.8 6.4-12.8 6.4-12.8 19.2-6.4 32z m-6.4 320c6.4 6.4 19.2 12.8 25.6 6.4 6.4-6.4 12.8-19.2 6.4-25.6-51.2-70.4-64-160-32-236.8 6.4-12.8 0-19.2-12.8-25.6h-6.4c-6.4 0-12.8 6.4-19.2 12.8-32 83.2-19.2 192 38.4 268.8z m672-70.4c12.8 0 19.2-6.4 19.2-19.2v-64c-19.2 32-38.4 57.6-64 83.2h44.8z m-339.2 25.6c6.4 0 12.8-6.4 12.8-6.4 6.4-6.4 6.4-6.4 6.4-12.8s0-12.8-6.4-12.8c0-6.4-6.4-12.8-12.8-12.8s-12.8 0-12.8 6.4c-6.4 6.4-6.4 12.8-6.4 12.8 0 6.4 0 12.8 6.4 12.8 6.4 6.4 6.4 12.8 12.8 12.8z m19.2 384v-128c0-6.4-6.4-12.8-12.8-19.2l-102.4-64H512l-102.4 64c-6.4 0-12.8 6.4-12.8 19.2v128c-38.4-38.4-64-89.6-64-140.8 0-102.4 83.2-185.6 192-185.6s192 83.2 192 185.6c-6.4 51.2-25.6 102.4-70.4 140.8zM704 448c140.8 0 256-115.2 256-256s-115.2-256-256-256-256 115.2-256 256 115.2 256 256 256z m140.8-134.4c-6.4 12.8-19.2 12.8-32 0l-140.8-147.2-57.6 57.6c-6.4 12.8-19.2 6.4-32 0-6.4-6.4-6.4-19.2 0-32l70.4-76.8c6.4-12.8 19.2-12.8 32 0l160 166.4c12.8 0 12.8 19.2 0 32z"  horiz-adv-x="1024" />

    
    <glyph glyph-name="16_NRQY_A_weixiufu" unicode="&#59502;" d="M409.6 896h19.2c6.4-6.4 12.8-12.8 12.8-19.2v-160l83.2-51.2 83.2 51.2V876.8c0 6.4 6.4 12.8 12.8 19.2h19.2c70.4-38.4 115.2-115.2 115.2-192l12.8 12.8c6.4 6.4 19.2 6.4 25.6 0l115.2-115.2c6.4-6.4 6.4-19.2 0-25.6l-38.4-38.4c19.2-32 32-64 44.8-102.4V448h-51.2c-6.4 25.6-19.2 51.2-38.4 76.8-6.4 6.4-6.4 19.2 0 25.6l32 32-83.2 83.2-32-32c-25.6-96-115.2-166.4-217.6-166.4-32 0-57.6 6.4-83.2 12.8v-236.8l-38.4-70.4V499.2c-44.8 32-76.8 70.4-96 121.6l-6.4 12.8-32 32-83.2-83.2 32-32c6.4-6.4 6.4-19.2 0-25.6-19.2-38.4-32-76.8-44.8-121.6 0-6.4-12.8-12.8-19.2-12.8h-51.2v-121.6h51.2c6.4 0 19.2-6.4 19.2-12.8 6.4-44.8 25.6-83.2 51.2-115.2 6.4-6.4 6.4-19.2 0-25.6l-32-32L275.2 0l32 32c6.4 6.4 19.2 6.4 25.6 0 38.4-25.6 76.8-38.4 121.6-51.2 0 0 6.4 0 6.4-6.4l6.4-12.8v-51.2h32l19.2-38.4H435.2c-6.4 0-6.4 0-12.8 6.4s-6.4 6.4-6.4 12.8v51.2c-38.4 6.4-70.4 25.6-102.4 44.8l-38.4-38.4c-6.4-6.4-19.2-6.4-25.6 0L140.8 64c-6.4 6.4-6.4 19.2 0 25.6l38.4 38.4c-19.2 32-32 64-44.8 102.4h-51.2c-6.4 0-12.8 0-12.8 6.4-6.4 6.4-6.4 6.4-6.4 12.8V409.6c0 12.8 6.4 19.2 19.2 19.2h51.2c6.4 38.4 25.6 70.4 44.8 102.4l-38.4 38.4c-6.4 6.4-6.4 19.2 0 25.6L256 710.4c6.4 6.4 19.2 6.4 25.6 0l12.8-12.8c0 83.2 44.8 153.6 115.2 198.4zM384 121.6c0-12.8 6.4-19.2 6.4-32l12.8-19.2c-6.4 6.4-19.2 6.4-25.6 12.8-6.4 6.4-12.8 19.2-6.4 25.6 0 6.4 6.4 12.8 12.8 12.8zM294.4 499.2c6.4 6.4 19.2 12.8 25.6 6.4 6.4-6.4 12.8-19.2 6.4-25.6-51.2-70.4-64-160-32-236.8 6.4-12.8 0-19.2-12.8-25.6h-6.4c-6.4 0-12.8 6.4-19.2 12.8-32 83.2-19.2 192 38.4 268.8z m672-70.4c12.8 0 19.2-6.4 19.2-19.2v-83.2l-44.8 83.2c-6.4 6.4-6.4 12.8-12.8 19.2h38.4z m-243.2 76.8c12.8 6.4 25.6 6.4 32-6.4 12.8-19.2 25.6-32 32-51.2h-44.8c-6.4 12.8-12.8 19.2-19.2 25.6-6.4 12.8-6.4 25.6 0 32zM646.4 838.4v-128c0-6.4-6.4-12.8-12.8-19.2l-102.4-64H512l-102.4 64c-6.4 0-12.8 6.4-12.8 19.2v128c-38.4-38.4-64-89.6-64-140.8 0-102.4 83.2-185.6 192-185.6s192 83.2 192 185.6c-6.4 51.2-25.6 102.4-70.4 140.8zM300.8 179.2c6.4 6.4 19.2 6.4 25.6 0v-6.4c6.4-6.4 6.4-19.2 0-25.6 0-6.4-6.4-6.4-6.4-6.4-6.4 0-12.8 0-12.8 6.4-12.8 6.4-12.8 19.2-6.4 32z m326.4 275.2c6.4 0 12.8-6.4 12.8-6.4 6.4-6.4 6.4-6.4 6.4-12.8s0-12.8-6.4-12.8c0-6.4-6.4-12.8-12.8-12.8s-12.8 0-12.8 6.4c-6.4 6.4-6.4 12.8-6.4 12.8 0 6.4 0 12.8 6.4 12.8 6.4 6.4 6.4 12.8 12.8 12.8zM851.2-128H620.8c-19.2 0-38.4 12.8-51.2 32l-115.2 198.4c-12.8 19.2-12.8 38.4 0 57.6l115.2 198.4c12.8 12.8 32 25.6 51.2 25.6h230.4c19.2 0 38.4-12.8 51.2-32l115.2-198.4c12.8-19.2 12.8-38.4 0-57.6l-115.2-198.4c-12.8-12.8-32-25.6-51.2-25.6z m-243.2 358.4c0-12.8 6.4-25.6 19.2-25.6h217.6c12.8 0 19.2 12.8 19.2 25.6s-6.4 25.6-19.2 25.6H627.2c-12.8 0-19.2-12.8-19.2-25.6z m236.8-70.4H627.2c-12.8 0-19.2-12.8-19.2-25.6s6.4-25.6 19.2-25.6h217.6c12.8 0 19.2 12.8 19.2 25.6s-6.4 25.6-19.2 25.6z m0-96H627.2c-12.8 0-19.2-12.8-19.2-25.6s6.4-25.6 19.2-25.6h217.6c12.8 0 19.2 12.8 19.2 25.6s-6.4 25.6-19.2 25.6z"  horiz-adv-x="1027" />

    
    <glyph glyph-name="16_KPZT_A_yuyuechenggong" unicode="&#59494;" d="M512 768c211.2 0 384-172.8 384-384s-172.8-384-384-384-384 172.8-384 384 172.8 384 384 384z m153.6-422.4c12.8 0 25.6 12.8 25.6 25.6s-12.8 25.6-25.6 25.6H544V563.2c0 12.8-12.8 25.6-25.6 25.6H512c-12.8 0-25.6-12.8-25.6-32v-224h179.2z"  horiz-adv-x="1024" />

    
    <glyph glyph-name="16_KPZT_A_weifabu" unicode="&#59495;" d="M512 768c211.2 0 384-172.8 384-384s-172.8-384-384-384-384 172.8-384 384 172.8 384 384 384z m153.6-486.4H384c-19.2 0-32-12.8-32-32s12.8-32 32-32h281.6c19.2 0 32 12.8 32 32s-19.2 32-32 32z m-44.8 134.4H339.2c-19.2 0-32-12.8-32-32s12.8-32 32-32h281.6c19.2 0 32 12.8 32 32s-19.2 32-32 32z m38.4 134.4H384c-19.2 0-32-12.8-32-32s12.8-32 32-32h281.6c19.2 0 32 12.8 32 32-6.4 19.2-19.2 32-38.4 32z"  horiz-adv-x="1024" />

    
    <glyph glyph-name="16_KPZT_A_fabushibai" unicode="&#59496;" d="M512 768c211.2 0 384-172.8 384-384s-172.8-384-384-384-384 172.8-384 384 172.8 384 384 384z m-6.4-486.4c-25.6 0-44.8-19.2-44.8-44.8s19.2-44.8 44.8-44.8c25.6 0 44.8 19.2 44.8 44.8s-19.2 44.8-44.8 44.8z m0 320c-25.6 0-44.8-19.2-44.8-44.8l19.2-185.6c0-25.6 12.8-44.8 19.2-44.8 12.8 0 19.2 19.2 19.2 44.8l19.2 185.6c12.8 25.6-6.4 44.8-32 44.8z"  horiz-adv-x="1024" />

    
    <glyph glyph-name="16_KPZT_A_yuyueshibai" unicode="&#59497;" d="M512 768c211.2 0 384-172.8 384-384s-172.8-384-384-384-384 172.8-384 384 172.8 384 384 384z m147.2-236.8c-6.4 12.8-19.2 12.8-32 0L512 416 396.8 531.2c-12.8 12.8-25.6 12.8-32 0-12.8-12.8-12.8-19.2 0-32L473.6 384 364.8 262.4c-12.8-6.4-12.8-19.2 0-32 6.4-12.8 19.2-12.8 32 0L512 345.6l115.2-108.8c6.4-12.8 19.2-12.8 32 0 12.8 6.4 12.8 19.2 0 32L544 384l115.2 115.2c12.8 6.4 12.8 19.2 0 32z"  horiz-adv-x="1024" />

    
    <glyph glyph-name="16_GJWguolvtiaojian" unicode="&#59493;" d="M185.6 115.2c25.6 0 44.8-12.8 57.6-38.4 6.4-25.6 6.4-51.2-12.8-64-19.2-19.2-44.8-19.2-64-12.8s-38.4 32-38.4 57.6c0 12.8 6.4 32 19.2 44.8 6.4 6.4 19.2 12.8 38.4 12.8z m89.6 236.8c51.2 0 89.6-38.4 89.6-89.6 0-51.2-38.4-89.6-89.6-89.6s-89.6 38.4-89.6 89.6c0 51.2 38.4 89.6 89.6 89.6z m390.4 0c32 0 57.6-25.6 57.6-57.6s-25.6-57.6-57.6-57.6-57.6 25.6-57.6 57.6 25.6 57.6 57.6 57.6z m179.2 0c25.6 0 44.8-12.8 57.6-38.4 6.4-25.6 6.4-51.2-12.8-64-19.2-19.2-44.8-19.2-64-12.8s-38.4 32-38.4 57.6c0 32 25.6 57.6 57.6 57.6zM307.2 537.6c25.6 0 44.8-12.8 57.6-38.4 6.4-25.6 6.4-51.2-12.8-64s-44.8-19.2-64-12.8c-25.6 6.4-44.8 25.6-44.8 51.2 0 12.8 6.4 32 19.2 44.8 12.8 12.8 25.6 19.2 44.8 19.2z m537.6 0c25.6 0 44.8-12.8 57.6-38.4 6.4-25.6 6.4-51.2-12.8-64-19.2-19.2-44.8-19.2-64-12.8-25.6 6.4-38.4 32-38.4 57.6s25.6 57.6 57.6 57.6z m-179.2 0c32 0 57.6-25.6 57.6-57.6s-25.6-57.6-57.6-57.6-57.6 19.2-57.6 51.2 25.6 64 57.6 64zM121.6 652.8c32 0 57.6-25.6 57.6-57.6s-19.2-57.6-57.6-57.6-57.6 25.6-57.6 57.6c0 12.8 6.4 32 19.2 44.8 12.8 6.4 25.6 12.8 38.4 12.8zM243.2 838.4c25.6 0 44.8-12.8 57.6-38.4 6.4-25.6 6.4-51.2-12.8-64-19.2-19.2-44.8-19.2-64-12.8-25.6 6.4-38.4 25.6-38.4 51.2 0 32 25.6 64 57.6 64zM467.2-102.4l249.6 147.2c6.4 6.4 12.8 12.8 12.8 19.2v140.8c-12.8-12.8-19.2-19.2-25.6-19.2s-19.2-6.4-32-12.8v-76.8c0-6.4 0-6.4-6.4-12.8L512-12.8c-6.4-6.4-12.8 0-19.2 6.4V768c0 6.4 6.4 12.8 12.8 12.8H512l153.6-96c6.4 0 6.4-6.4 6.4-12.8v-76.8c12.8 0 25.6-6.4 32-6.4s19.2-12.8 32-19.2V704c0 6.4-6.4 19.2-12.8 19.2L467.2 870.4c-12.8 12.8-32 6.4-38.4-6.4 0-6.4-6.4-6.4-6.4-12.8v-934.4c0-12.8 12.8-25.6 25.6-25.6 6.4 0 12.8 0 19.2 6.4z"  horiz-adv-x="1024" />

    
    <glyph glyph-name="16_DH_A_koujingguanli" unicode="&#59491;" d="M819.2 774.4l192-326.4c25.6-38.4 25.6-89.6 0-134.4l-192-326.4c-25.6-38.4-70.4-64-115.2-64H326.4c-44.8 0-89.6 25.6-115.2 64l-192 326.4C-6.4 352-6.4 403.2 19.2 448l192 326.4c25.6 38.4 70.4 64 115.2 64H704c44.8 6.4 89.6-19.2 115.2-64z m-108.8 0H339.2c-25.6 0-44.8-12.8-57.6-32l-12.8-6.4-185.6-320c-12.8-19.2-12.8-44.8-6.4-64l6.4-6.4 185.6-320c12.8-19.2 32-32 57.6-38.4h371.2c25.6 0 44.8 12.8 57.6 32l6.4 6.4 185.6 320c12.8 19.2 12.8 44.8 6.4 64l-6.4 6.4-185.6 320c-12.8 19.2-32 32-51.2 38.4zM307.2 448H384v-198.4H307.2V448z m160 108.8h83.2v-307.2H467.2V556.8z m166.4 115.2h83.2v-428.8H633.6V672z m-409.6-460.8h576v-51.2h-576v51.2z"  horiz-adv-x="1030" />

    
    <glyph glyph-name="16_DH_A_gongshiguanli" unicode="&#59492;" d="M224 640h192c12.8 0 32 12.8 32 32S428.8 704 416 704h-192c-19.2 0-32-12.8-32-32s12.8-32 32-32zM665.6 864H179.2C128 864 83.2 819.2 83.2 768v-768c0-51.2 44.8-96 96-96h659.2c51.2 0 96 44.8 96 96V608l-268.8 256z m0-89.6l179.2-166.4h-147.2c-19.2 0-32 12.8-32 32V774.4zM876.8 0c0-19.2-12.8-32-32-32H179.2c-19.2 0-32 12.8-32 32V768c0 19.2 12.8 32 32 32h416V640c0-51.2 44.8-96 96-96h179.2V0zM422.4 512c-12.8 6.4-25.6 12.8-44.8 12.8-44.8 0-64-25.6-64-76.8v-57.6h89.6v-57.6H320v-326.4H256V332.8H192V384h64V448c0 38.4 12.8 70.4 38.4 96S345.6 576 384 576c19.2 0 32 0 44.8-6.4l-6.4-57.6z m332.8-128l-128-192 128-185.6h-76.8L608 128c-6.4 6.4-12.8 12.8-19.2 32 0 0-6.4-12.8-19.2-32l-70.4-121.6H422.4l128 185.6-128 192h76.8l70.4-128c6.4-6.4 12.8-19.2 12.8-32L672 384h83.2z"  horiz-adv-x="1024" />

    
    <glyph glyph-name="16_GJWgongshiguanli" unicode="&#59489;" d="M750.509317 896c19.080745 0 31.801242-12.720497 31.801242-31.801242s-12.720497-31.801242-31.801242-31.801242H527.900621L432.496894 577.987578h44.52174c19.080745 0 31.801242-12.720497 31.801242-31.801243s-12.720497-31.801242-31.801242-31.801242h-63.602485l-209.888199-591.503105c-6.360248-12.720497-19.080745-19.080745-31.801242-19.080746H31.801242c-19.080745 0-31.801242 12.720497-31.801242 31.801242s12.720497 31.801242 31.801242 31.801243h114.484472L343.453416 514.385093H159.006211c-19.080745 0-31.801242 19.080745-31.801242 31.801242s12.720497 31.801242 31.801242 31.801243h209.888199L477.018634 870.559006c0 19.080745 12.720497 25.440994 25.440993 25.440994h248.04969z m228.968944-127.204969c19.080745 0 38.161491-12.720497 38.161491-31.801242s-12.720497-31.801242-31.801243-31.801242h-69.962733l-108.124223-139.925466L884.074534 450.782609h-76.322981l-38.161491 63.602484-44.521739-63.602484h-76.322981l82.683229 114.484472-82.683229 127.204969H578.782609c-12.720497 0-31.801242 12.720497-31.801243 31.801242s12.720497 31.801242 31.801243 31.801242h95.403726c6.360248 0 19.080745-6.360248 25.440994-12.720497l76.322982-120.84472 95.403726 133.565217c6.360248 12.720497 19.080745 12.720497 25.440994 12.720497h82.68323zM623.304348 342.658385c-6.360248 0-12.720497-6.360248-19.080746-12.720497l-108.124223-184.447205c-6.360248-6.360248-6.360248-12.720497 0-25.440994l108.124223-184.447205c6.360248-6.360248 12.720497-12.720497 19.080746-12.720496h216.248447c6.360248 0 12.720497 6.360248 19.080745 12.720496l108.124224 184.447205c6.360248 6.360248 6.360248 12.720497 0 25.440994l-108.124224 184.447205c-6.360248 6.360248-12.720497 12.720497-19.080745 12.720497H623.304348z m222.608695 44.521739c19.080745 0 38.161491-12.720497 50.881988-31.801242l114.484472-197.167702c12.720497-19.080745 12.720497-38.161491 0-57.242236l-114.484472-197.167702c-12.720497-19.080745-31.801242-31.801242-50.881988-31.801242H616.944099c-19.080745 0-38.161491 12.720497-50.881987 31.801242l-114.484472 197.167702c-12.720497 19.080745-12.720497 38.161491 0 57.242236l114.484472 197.167702c12.720497 19.080745 31.801242 31.801242 50.881987 31.801242h228.968944z m-89.043478-203.52795H699.627329l-25.440994-50.881988 25.440994-44.521739h57.242236l25.440994 44.521739-25.440994 50.881988z"  horiz-adv-x="1027" />

    
    <glyph glyph-name="16_GJWkoujingguanli" unicode="&#59490;" d="M806.4 761.6L985.6 448c25.6-38.4 25.6-89.6 0-128l-179.2-313.6c-25.6-38.4-64-64-108.8-64H332.8c-44.8 0-89.6 25.6-108.8 64L38.4 320C12.8 358.4 12.8 409.6 38.4 448l179.2 313.6c25.6 38.4 64 64 108.8 64h364.8c51.2 0 89.6-25.6 115.2-64zM704 774.4H332.8c-25.6 0-44.8-12.8-57.6-32l-6.4-6.4-185.6-313.6c-12.8-19.2-12.8-44.8-6.4-64l6.4-6.4 179.2-313.6c12.8-25.6 38.4-38.4 57.6-44.8h371.2c25.6 0 44.8 12.8 57.6 32l6.4 6.4 179.2 313.6c12.8 19.2 12.8 44.8 6.4 64l-6.4 6.4-179.2 313.6c-6.4 25.6-32 38.4-51.2 44.8zM307.2 448H384v-198.4H307.2V448z m160 108.8h83.2v-307.2H467.2V556.8z m166.4 115.2h83.2v-428.8H633.6V672z m-409.6-460.8h576v-51.2h-576v51.2zM38.4 96c12.8 0 25.6-12.8 32-25.6v-128H192c12.8 0 25.6-12.8 32-25.6v-6.4c0-12.8-12.8-25.6-25.6-32h-192V64c0 19.2 12.8 32 32 32z m947.2 0c19.2 0 32-12.8 32-32v-185.6h-192c-12.8 0-25.6 12.8-25.6 32v6.4c0 12.8 12.8 25.6 32 25.6h121.6v128c6.4 12.8 19.2 25.6 32 25.6zM192 896c19.2-6.4 32-19.2 32-32v-6.4c-6.4-12.8-19.2-25.6-32-25.6H70.4v-121.6L64 704c0-12.8-12.8-25.6-32-25.6S0 691.2 0 710.4V896h192z m825.6 0v-185.6c0-19.2-12.8-32-32-32-12.8 0-25.6 12.8-25.6 25.6V832h-128c-12.8 0-25.6 12.8-32 25.6V864c0 12.8 12.8 25.6 25.6 32h192z"  horiz-adv-x="1024" />

    
    <glyph glyph-name="16_NRQY_A_canshujiancha" unicode="&#59734;" d="M142.519795 364.307692m-142.519795 0a142.519795 142.519795 0 1 1 285.03959 0 142.519795 142.519795 0 1 1-285.03959 0ZM144.436513 475.621744a113.230769 113.230769 0 1 0 0-226.461539 113.230769 113.230769 0 0 0 0 226.461539z m-13.02318-31.507693l0.091898-1.929846c0.026256-17.460513-21.976615-20.834462-31.533949-9.412923-4.870564-3.150769-11.539692-4.555487-12.931282-11.316513 9.426051-11.198359 0.813949-28.724513-18.642051-24.064-2.100513-5.421949-4.174769-11.093333-5.684513-17.092923 16.265846-2.56 16.265846-27.267282 0-29.801025 1.509744-5.933949 3.570872-11.605333 5.697641-17.027283 20.545641 4.489846 27.437949-13.16759 18.628923-25.547487 3.242667-4.831179 7.863795-8.283897 14.388513-9.924923 8.585846 13.088821 32.072205 6.485333 29.958564-11.421538h20.138667l-0.091898 1.929846c-0.078769 17.513026 21.976615 20.873846 31.59959 9.491692 4.857436 3.150769 11.552821 4.608 12.813128 11.342769-9.321026 11.250872-0.708923 28.698256 18.628923 24.090257 2.284308 5.566359 4.201026 11.237744 5.77641 17.04041-16.948513 4.148513-16.948513 25.705026 0 29.801026-1.575385 5.802667-3.492103 11.500308-5.77641 17.092923-20.558769-4.502974-27.241026 13.16759-18.628923 25.534359-3.190154 4.778667-7.876923 8.152615-14.309743 9.87241-8.585846-13.088821-32.124718-6.485333-30.011077 11.342769z m10.069334-49.178256a29.722256 29.722256 0 0 0 29.853538-29.577846 29.722256 29.722256 0 0 0-29.853538-29.577846 29.722256 29.722256 0 0 0-29.853539 29.577846A29.722256 29.722256 0 0 0 141.482667 394.935795zM181.366154 153.82317899999998a38.833231 38.833231 0 0 0 38.820102-37.704205l0.131282 0.131282c3.255795-86.186667 102.610051-95.507692 102.610052-95.507692l-0.551385-0.590769a38.859487 38.859487 0 1 0-45.397333-49.204513l-0.013128-0.039385-0.052513 0.249436a38.610051 38.610051 0 0 0-1.181539 5.356308c-18.720821 82.313846-67.544615 97.450667-88.431589 100.102564a38.833231 38.833231 0 1 0-5.947077 77.193846zM307.948308 780.7081029999999a30.06359 30.06359 0 0 0-22.580513-50.832411c-59.234462-13.482667-71.522462-48.626872-74.016821-64.328205a30.06359 30.06359 0 1 0-29.223384 24.772923l-0.551385 0.590769c65.956103 1.024 74.870154 76.471795 74.870154 76.471795l0.525128-0.485743a30.06359 30.06359 0 0 0 50.989949 13.797743zM555.940103 830.227692a22.554256 22.554256 0 1 0-4.962462-44.83282 22.554256 22.554256 0 0 0 4.949333 44.819692M700.652308 726.698667H359.489641c-11.093333 0-20.348718-8.244513-21.924103-19.245949-10.134974-71.785026-75.500308-108.701538-104.054153-121.147077A22.121026 22.121026 0 0 1 220.199385 566.061949v-292.128821c0-191.159795 309.878154-312.97641 309.878153-312.97641s309.878154 121.816615 309.878154 312.97641V566.061949c0 8.795897-5.251282 16.75159-13.312 20.25682-28.553846 12.458667-93.932308 49.362051-104.067282 121.147077-1.549128 11.001436-10.817641 18.326974-21.924102 18.326975v0.918974zM671.980308 669.801026c4.201026-13.010051 9.833026-25.560615 16.843487-37.546667a213.031385 213.031385 0 0 1 39.673436-48.78441 267.027692 267.027692 0 0 1 53.431795-37.888v-270.073436c0-73.124103-69.920821-137.859282-128.59077-179.305026-47.681641-33.700103-96.242872-57.908513-123.300102-70.301538-26.624 12.169846-74.09559 35.826872-121.514667 69.093743-40.119795 28.133744-71.666872 57.173333-93.748513 86.291693-12.025436 15.858872-21.202051 31.757128-27.267282 47.261538-6.249026 15.924513-9.281641 31.284513-9.281641 46.95959V545.581949a267.067077 267.067077 0 0 1 53.431795 37.888 213.031385 213.031385 0 0 1 39.660308 48.78441c7.02359 11.986051 12.65559 24.536615 16.856615 37.546667h283.805539M544.938667 517.789538l-101.861744-154.755282c-5.474462-8.388923 0.420103-18.707692 10.292513-18.707692h45.633641l-56.096821-105.695179c-4.201026-8.546462 6.590359-16.475897 13.206975-9.714872l152.562872 152.904205c7.785026 7.955692 2.271179 21.556513-8.743385 21.556513h-69.001846l28.868923 107.703795c2.244923 9.163487-9.728 14.572308-14.861128 6.708512M969.307897 390.997333l-25.652512-25.665641a8.310154 8.310154 0 0 0-11.710359-0.039384l-25.757539 25.74441a8.310154 8.310154 0 0 0 0.039385 11.723487l25.665641 25.652513a8.310154 8.310154 0 0 0 11.710359 0.052513l25.757538-25.757539a8.310154 8.310154 0 0 0-0.052513-11.710359M787.561026 780.248615c-75.316513 0-136.388923-61.07241-136.388923-136.402051 0-75.316513 61.07241-136.375795 136.402051-136.375795 75.316513 0 136.375795 61.059282 136.375795 136.388923 0 75.316513-61.046154 136.388923-136.388923 136.388923M765.597538 597.530256l-8.612102 8.612103 83.429743 83.74482a7.31241 7.31241 0 0 0 10.331898 0l3.452718-3.452717a7.31241 7.31241 0 0 0 0-10.331898l-78.283487-78.572308a7.31241 7.31241 0 0 0-10.331898 0M784.515282 606.129231l-8.612103-8.598975a7.31241 7.31241 0 0 0-10.331897 0l-34.290872 34.277744a7.31241 7.31241 0 0 0 0 10.331897l3.452718 3.452718a7.31241 7.31241 0 0 0 10.331898 0l39.450256-39.450256zM985.626256 272.85661500000003H651.172103V302.31630800000005A11.684103 11.684103 0 0 0 662.948103 313.89538500000003H973.863385a11.684103 11.684103 0 0 0 11.762871-11.579077v-29.459693zM973.863385-16.764718000000016H662.948103a11.789128 11.789128 0 0 0-11.776 11.815385V276.34871799999996h334.454153v-281.298051c0-6.524718-5.26441-11.815385-11.762871-11.815385M678.741333 294.137436a7.522462 7.522462 0 1 0-15.031795 0 7.522462 7.522462 0 0 0 15.031795 0M706.297436 294.137436a7.522462 7.522462 0 1 0-15.031795 0 7.522462 7.522462 0 0 0 15.031795 0M733.866667 294.137436a7.522462 7.522462 0 1 0-15.031795 0 7.522462 7.522462 0 0 0 15.031795 0M687.419077 23.52574400000003a3.675897 3.675897 0 0 0-3.675898 3.675897V240.351179a3.675897 3.675897 0 0 0 3.675898 3.675898H953.19959a3.675897 3.675897 0 0 0 3.675897-3.675898v-213.149538a3.675897 3.675897 0 0 0-3.675897-3.675897H687.419077zM814.998974 60.69169199999999a5.251282 5.251282 0 0 0-8.690871-0.026256l-38.203077 56.031179-45.174154-56.359384a5.251282 5.251282 0 1 0-8.192 6.564102l49.624615 61.912616a5.251282 5.251282 0 0 0 8.428308-0.328205l37.835487-55.506052 51.331282 76.261744a5.251282 5.251282 0 0 0 7.758769 1.063385l65.496616-55.558565a5.251282 5.251282 0 0 0-6.800411-8.008205L867.393641 138.502564l-52.381538-77.810872zM778.948923 213.963487h-67.610256a5.041231 5.041231 0 0 0-5.041231 5.001846c0 2.756923 2.271179 5.014974 5.041231 5.014975h67.610256c2.756923 0 5.028103-2.258051 5.028103-5.014975 0-2.756923-2.258051-5.001846-5.028103-5.001846M738.881641 191.40923099999998h-25.061744a5.014974 5.014974 0 0 0 0 10.01682h25.061744a5.014974 5.014974 0 1 0 0-10.01682"  horiz-adv-x="1034" />

    
    <glyph glyph-name="16_NRQY_A_canshuleixing" unicode="&#59730;" d="M345.6 651.136a33.28 33.28 0 1 0 0 66.56h576.192a33.28 33.28 0 1 0 0-66.56H345.6zM113.6 551.104a33.28 33.28 0 0 0-33.28 33.28V784.384a33.28 33.28 0 0 0 33.28 33.28h204.416a33.28 33.28 0 0 0 33.28-33.28V584.3199999999999a33.28 33.28 0 0 0-33.28-33.152H113.536z m33.28 66.56h137.856V751.168H146.88v-133.376z m194.752-562.368a33.28 33.28 0 0 0 0 66.56h576.128a33.28 33.28 0 0 0 0.064-66.56H341.568z m-232-100.032a33.28 33.28 0 0 0-33.28 33.28v200a33.28 33.28 0 0 0 33.28 33.28h204.288a33.28 33.28 0 0 0 33.28-33.28v-200a33.088 33.088 0 0 0-32.896-33.28H109.568z m171.008 66.624v133.376H142.784v-133.376h137.792zM112.64 337.08799999999997a33.28 33.28 0 0 0 0 66.56h576.128a33.28 33.28 0 0 0 0-66.56H112.64z m603.84-100.032a33.28 33.28 0 0 0-33.28 33.28V470.4a33.28 33.28 0 0 0 33.28 33.28h204.288a33.28 33.28 0 0 0 33.28-33.28v-200.064a33.152 33.152 0 0 0-33.024-33.28h-204.544z m33.28 66.56h137.728V437.12h-137.728v-133.44z"  horiz-adv-x="1024" />

    
    <glyph glyph-name="16_NRQY_A_cuowuyinyong" unicode="&#59731;" d="M780.8 242.17600000000004a159.808 159.808 0 1 0 0-319.552 159.808 159.808 0 0 0 0 319.552z m-324.096-21.76l164.288-136.064-164.288-137.408-0.064 109.376h-163.84v54.784h163.84l0.064 109.312zM321.472 768a159.808 159.808 0 0 0 26.112-317.44v-338.624h-55.424V450.56h2.944A159.808 159.808 0 0 0 321.472 768z"  horiz-adv-x="1024" />

    
    <glyph glyph-name="16_NRQY_A_cuowucanshu" unicode="&#59732;" d="M1019.2 133.12a350.272 350.272 0 0 1-8.896 41.856c-49.472-4.864-60.864 39.104-36.48 65.92a58.304 58.304 0 0 1-31.36 27.52c-23.616-28.544-77.824-6.912-67.456 35.264-15.68 2.112-31.36 3.648-47.424 5.504-0.832-45.696-56.832-49.152-76.864-17.92-12.8-6.528-28.48-8.256-33.536-23.68 18.944-29.312-6.08-68.416-50.688-52.032a338.56 338.56 0 0 1-18.112-38.72c37.44-10.624 30.592-69.696-8.192-71.168 1.92-14.08 4.8-28.096 8.576-41.792 49.728 4.928 60.8-38.976 37.12-65.984 6.272-12.736 17.152-22.4 30.336-27.264 24.32 28.48 77.632 6.464 67.712-35.84 16.128-1.408 31.936-3.264 47.36-5.248 1.28 46.08 57.408 49.28 77.312 18.88 12.48 6.336 28.224 7.552 33.472 23.168-18.816 29.376 6.144 68.48 50.496 52.352 6.4 12.16 12.608 25.024 18.112 38.464-38.528 14.464-32.768 65.664 8.512 70.656z m-120-22.08a69.952 69.952 0 0 0-77.952-61.952 71.232 71.232 0 0 0-62.208 78.72 70.784 70.784 0 0 0 78.464 61.696c38.976-4.608 67.072-39.232 61.696-78.464z m-220.224 145.92c10.112 24.96 18.688 50.368 25.6 76.416-75.264 18.56-75.264 115.264 0 133.632a655.616 655.616 0 0 1-25.6 76.608c-91.328-20.16-120.96 59.008-82.752 114.56-14.208 21.376-34.944 36.48-63.552 44.16-38.144-58.624-142.72-29.056-133.376 50.88H309.952c7.616-85.76-95.68-103.872-139.712-50.816-21.632-14.208-51.2-20.48-57.408-50.752 41.92-50.24 3.648-128.832-82.752-107.904-9.408-24.32-18.56-49.728-25.28-76.672 72.192-11.52 72.192-122.24 0-133.568 6.72-26.624 15.872-52.032 25.28-76.352 91.328 20.16 121.856-59.072 82.752-114.56 14.4-21.632 34.944-37.12 63.936-44.48 38.08 58.688 142.464 29.056 133.12-51.2h89.408c-7.808 86.016 95.744 104 139.968 51.2 21.632 14.144 51.328 20.672 56.96 50.816-41.472 50.56-3.2 128.704 82.752 108.096zM354.688 267.52a132.672 132.672 0 1 0 0.064 265.28 132.672 132.672 0 0 0 0-265.28z"  horiz-adv-x="1024" />

    
    <glyph glyph-name="16_NRQY_A_lajicanshu" unicode="&#59733;" d="M834.368 256.576c-5.44 4.48-8.192 7.168-11.2 9.472-31.552 23.552-42.752 49.92-36.672 92.928 22.4 157.504-105.6 287.296-234.624 301.248-162.944 17.664-296.96-84.544-317.632-240.64-24.832-186.56 140.16-342.4 325.888-307.072 20.864 3.904 35.008-0.512 48.576-15.616 9.6-10.624 21.824-19.072 36.928-31.936-42.56-22.144-43.136-56.96-40.96-92.608 2.304-35.136-4.288-68.864-39.232-83.008-38.208-15.424-81.472-18.688-117.248 4.48-16.384 10.688-24.96 37.12-31.36 58.112-4.992 15.872-0.832 34.56-1.28 51.84-0.64 27.776-13.376 48.32-39.04 59.2-25.792 10.88-49.408 6.144-69.632-13.44-12.48-12.16-24.64-24.704-37.504-36.48-24.96-22.848-59.648-29.504-85.12-11.008a274.816 274.816 0 0 0-59.008 58.688c-17.92 24.192-10.88 61.696 11.2 85.184 11.904 12.672 25.024 24.192 37.184 36.672 17.728 18.112 24.128 40 16.448 64a60.992 60.992 0 0 1-52.672 44.096c-20.096 2.624-40.64 2.112-60.992 3.2C32.512 295.744 7.04 321.28 5.12 365.05600000000004a493.696 493.696 0 0 0 0 40.64C6.784 450.944 35.392 478.912 80.832 480c16.512 0.384 33.024-0.64 49.472 0.32 27.328 1.6 48.704 14.272 58.88 40 10.112 25.6 4.48 49.28-15.552 69.12-10.88 10.88-21.952 21.76-32.64 32.896-4.736 4.864-9.6 9.728-13.056 15.36-24 39.68-9.792 79.04 43.968 123.008 31.36 25.6 69.312 24.32 99.84-3.712 12.8-11.776 24.704-24.576 37.568-36.288 20.672-18.88 44.992-22.912 70.08-12.032 24 10.304 37.696 29.44 37.376 56.96-0.064 18.304-0.192 36.736 1.152 55.04 2.56 35.584 25.6 63.232 60.352 68.16 23.04 3.264 46.4 3.264 69.376 0 32.768-4.48 56.256-33.408 57.984-66.944 1.024-19.2-0.896-38.784 0.64-57.92 2.304-26.88 14.528-47.424 41.216-57.984 26.816-10.624 49.216-3.712 68.928 15.36 8.32 8.192 16.256 16.768 24.448 24.896 5.44 5.44 10.88 11.136 16.896 15.872 38.912 29.824 82.176 17.28 128.896-37.12 28.48-33.28 26.496-72.704-4.672-103.552-12.352-12.288-25.344-24.128-36.16-37.76-16.896-20.992-22.528-45.568-9.856-70.4 11.904-23.232 32.448-35.136 59.2-35.008 16.512 0 33.024 0.64 49.408-0.192 39.232-1.92 67.264-25.152 72.128-62.528 2.752-21.12 2.752-42.432-0.064-63.488-5.12-37.12-34.24-61.12-72.32-62.656a307.456 307.456 0 0 0-34.816 0.128c-30.272 2.24-55.168-7.04-75.136-32.896zM314.304 435.328c24-25.088 47.488-50.56 72-75.072 46.592-46.848 107.2-48.32 152.064-4.224 46.272 45.44 45.568 104.96-2.944 152.96-24.704 24.512-51.072 47.36-74.432 74.752 62.72 18.688 119.424 8.448 170.24-27.008 80.64-56.256 110.72-151.04 77.824-243.328-6.272-17.664-1.024-26.496 10.176-37.312 60.224-58.88 120.448-117.76 179.968-177.216 34.24-34.112 32.448-74.88-3.328-105.856-28.8-24.768-64.512-23.872-93.696 4.48a13865.792 13865.792 0 0 0-179.328 177.984c-13.76 13.888-24.512 17.536-44.8 10.752-79.36-26.624-151.68-10.304-212.224 47.232-56.832 54.08-73.92 121.408-60.16 196.8l8.64 5.12z m536.384-353.152c-20.032-2.304-33.6-12.8-35.456-34.048-1.6-19.328 16.32-36.928 36.096-36.928a35.392 35.392 0 0 1 35.456 37.12c-1.28 21.952-14.528 32-36.096 33.92z"  horiz-adv-x="1024" />

    
    <glyph glyph-name="16_GJZliuchenggenzong" unicode="&#59145;" d="M851.2 896c64 0 121.6-51.2 121.6-121.6s-51.2-121.6-121.6-121.6c-51.2 0-96 32-115.2 83.2v6.4H307.2c-83.2 0-153.6-64-160-147.2V556.8c0-83.2 64-153.6 147.2-160h64c12.8 57.6 64 96 121.6 96s108.8-38.4 121.6-96h121.6c57.6 0 115.2-25.6 153.6-64 38.4-38.4 64-96 64-153.6s-25.6-115.2-64-153.6c-38.4-38.4-89.6-57.6-140.8-64H294.4c-19.2-38.4-57.6-70.4-108.8-70.4-64 0-121.6 51.2-121.6 121.6s51.2 121.6 121.6 121.6c57.6 0 108.8-44.8 115.2-102.4v-12.8h422.4c89.6 0 160 70.4 160 160 0 83.2-64 153.6-147.2 160H601.6c-12.8-57.6-64-102.4-128-102.4s-115.2 44.8-128 102.4h-44.8c-57.6 0-115.2 25.6-153.6 64-32 44.8-57.6 89.6-57.6 147.2V588.8c0 57.6 25.6 115.2 64 153.6 38.4 38.4 89.6 57.6 140.8 64h441.6c12.8 51.2 57.6 89.6 115.2 89.6zM185.6 76.8c-32 0-57.6-25.6-57.6-57.6s25.6-57.6 57.6-57.6 57.6 25.6 57.6 57.6-25.6 57.6-57.6 57.6z m288 358.4c-32 0-57.6-25.6-57.6-57.6s25.6-64 57.6-64 57.6 25.6 57.6 64-19.2 57.6-57.6 57.6zM851.2 838.4c-32 0-57.6-25.6-57.6-57.6s25.6-57.6 57.6-57.6 57.6 25.6 57.6 57.6c0 25.6-25.6 57.6-57.6 57.6z"  horiz-adv-x="1024" />

    
    <glyph glyph-name="32_KPZT_A_yuyuechenggong" unicode="&#59484;" d="M864 896v-672c0-195.2-156.8-352-352-352S160 28.799999999999955 160 224V896h704zM512 457.6c-128 0-233.6-105.6-233.6-233.6s105.6-233.6 233.6-233.6 233.6 105.6 233.6 233.6-105.6 233.6-233.6 233.6zM512 19.200000000000045c9.6 0 16-6.4 16-16v-16h-32v16c0 9.6 6.4 16 16 16zM512 384c9.6 0 16-6.4 16-16V224H640c9.6 0 16-6.4 16-16s-6.4-16-16-16h-144v176c0 9.6 6.4 16 16 16z m-220.8-144c9.6 0 16-6.4 16-16s-6.4-16-16-16h-16v32h16z m460.8 0v-32H736c-9.6 0-16 6.4-16 16s6.4 16 16 16h16z m-224 217.6v-16c0-9.6-6.4-16-16-16s-16 6.4-16 16v16h32z"  horiz-adv-x="1024" />

    
    <glyph glyph-name="32_KPZT_A_renwuweifabu" unicode="&#59485;" d="M864 896v-672c0-195.2-156.8-352-352-352S160 28.799999999999955 160 224V896h704zM512 489.6c-128 0-233.6-105.6-233.6-233.6s105.6-233.6 233.6-233.6 233.6 105.6 233.6 233.6-105.6 233.6-233.6 233.6zM556.8 96l-96 51.2 25.6 22.4 57.6-32-25.6 96-80-73.6v-96h-32v108.8l102.4 92.8-9.6 32-134.4-60.8 48-28.8-25.6-19.2-89.6 54.4 195.2 86.4-22.4 80 32 9.6 83.2-300.8v-3.2l6.4-25.6-32-9.6-3.2 16z m57.6 118.4l-16 57.6 16 48-22.4-22.4-9.6 35.2 6.4 3.2-6.4-3.2-9.6 32 102.4 48-60.8-198.4z"  horiz-adv-x="1024" />

    
    <glyph glyph-name="32_KPZT_A_renwufabushibai" unicode="&#59486;" d="M864 896v-672c0-195.2-156.8-352-352-352S160 28.799999999999955 160 224V896h704zM512 489.6c-128 0-233.6-105.6-233.6-233.6s105.6-233.6 233.6-233.6 233.6 105.6 233.6 233.6-105.6 233.6-233.6 233.6zM512 172.79999999999995c16 0 28.8-12.8 28.8-28.8s-12.8-28.8-28.8-28.8-28.8 12.8-28.8 28.8 12.8 28.8 28.8 28.8z m0 211.2c16 0 28.8-12.8 28.8-28.8l-12.8-124.8c0-16-6.4-28.8-12.8-28.8s-12.8 12.8-12.8 28.8l-12.8 124.8c-6.4 16 6.4 28.8 22.4 28.8z"  horiz-adv-x="1024" />

    
    <glyph glyph-name="32_KPZT_A_yuyuezhihangshibai" unicode="&#59487;" d="M864 896v-672c0-195.2-156.8-352-352-352S160 28.799999999999955 160 224V896h704zM512 457.6c-128 0-233.6-105.6-233.6-233.6s105.6-233.6 233.6-233.6 233.6 105.6 233.6 233.6-105.6 233.6-233.6 233.6zM512 243.20000000000005l70.4 70.4c6.4 6.4 16 6.4 19.2 0 6.4-6.4 6.4-16 0-19.2L531.2 224l70.4-70.4c6.4-6.4 6.4-16 0-19.2-6.4-6.4-16-6.4-19.2 0L512 201.60000000000002l-70.4-70.4c-6.4-6.4-16-6.4-19.2 0-6.4 6.4-6.4 16 0 19.2l67.2 73.6-67.2 70.4c-6.4 6.4-6.4 12.8 0 19.2 3.2 6.4 12.8 6.4 19.2 0l70.4-70.4z"  horiz-adv-x="1024" />

    
    <glyph glyph-name="GJZshouqi" unicode="&#59128;" d="M351.687111 896l417.678222-409.6c33.905778-34.133333 33.905778-79.644444 11.377778-113.777778l-11.377778-11.377778L351.800889-128 227.555556-25.6l383.772444 443.733333L238.933333 782.222222l112.867556 113.777778z"  horiz-adv-x="1024" />

    
    <glyph glyph-name="GJZzhankai" unicode="&#59129;" d="M672.364089 896L254.685867 486.4c-33.905778-34.133333-33.905778-79.644444-11.377778-113.777778l11.377778-11.377778L672.250311-128 796.495644-25.6 412.7232 418.133333 785.117867 782.222222l-112.867556 113.777778z"  horiz-adv-x="1024" />

    
    <glyph glyph-name="_ZSYrizhichaxun" unicode="&#59138;" d="M802.88 424.128V689.856a96.192 96.192 0 0 1-96 96H152.96a96.256 96.256 0 0 1-96.128-96v-607.872a96.192 96.192 0 0 1 96.128-96H550.4a256.064 256.064 0 1 1 252.416 438.144zM153.024 49.91999999999996a32.128 32.128 0 0 0-32.128 32.064V689.92a32.128 32.128 0 0 0 32.128 32h553.792a32.064 32.064 0 0 0 32.064-32v-250.88a252.48 252.48 0 0 1-27.776 2.752A255.808 255.808 0 0 1 493.44 49.91999999999996z m558.208-60.736a195.712 195.712 0 1 0 195.712 195.712 195.712 195.712 0 0 0-195.712-195.712zM223.936 839.104m32.064 0l0.064 0q32.064 0 32.064-32.064l0-106.56q0-32.064-32.064-32.064l-0.064 0q-32.064 0-32.064 32.064l0 106.56q0 32.064 32.064 32.064ZM565.248 839.104m32.064 0l0.064 0q32.064 0 32.064-32.064l0-106.56q0-32.064-32.064-32.064l-0.064 0q-32.064 0-32.064 32.064l0 106.56q0 32.064 32.064 32.064ZM170.688 555.136m32 0l448 0q32 0 32-32l0 0q0-32-32-32l-448 0q-32 0-32 32l0 0q0 32 32 32ZM170.688 384.512m32 0l220.416 0q32 0 32-32l0 0q0-32-32-32l-220.416 0q-32 0-32 32l0 0q0 32 32 32ZM170.688 213.82399999999996m32 0l160.256 0q32 0 32-32l0 0q0-32-32-32l-160.256 0q-32 0-32 32l0 0q0 32 32 32ZM682.688 327.10400000000004m31.872 0l-0.064 0q31.872 0 31.872-31.872l0-163.84q0-31.872-31.872-31.872l0.064 0q-31.872 0-31.872 31.872l0 163.84q0 31.872 31.872 31.872ZM682.688 162.94399999999996m31.68 0l107.328 0q31.68 0 31.68-31.68l0 0q0-31.68-31.68-31.68l-107.328 0q-31.68 0-31.68 31.68l0 0q0 31.68 31.68 31.68Z"  horiz-adv-x="1024" />

    
    <glyph glyph-name="_ZSYshouye" unicode="&#59139;" d="M940.288 397.824l-114.688 108.8V674.112a32 32 0 0 1-32 32H621.184a30.336 30.336 0 0 1-4.928-1.024L535.68 781.6320000000001l-0.256 0.448-0.832 0.576-0.64 0.64c-0.64 0.64-1.472 0.768-2.176 1.344a31.744 31.744 0 0 1-8 5.056 30.336 30.336 0 0 1-4.736 1.024 21.376 21.376 0 0 1-13.952 0 30.336 30.336 0 0 1-4.672-1.024 31.68 31.68 0 0 1-8.064-5.056c-0.64-0.576-1.536-0.768-2.176-1.344l-0.64-0.64-0.832-0.576-0.32-0.448-404.608-383.808a32 32 0 0 1 44.032-46.464l41.6 39.424v-350.72a64 64 0 0 1 63.936-63.872h139.328v-0.064h64l0.448 226.56 171.136 0.128-0.64-226.688h64v0.064h123.904a64 64 0 0 1 63.936 63.872v346.24l36.864-34.944a32 32 0 1 1 44.032 46.464zM761.6 642.1759999999999v-74.88l-78.912 74.88z m-89.856-601.984l0.448 162.624a63.872 63.872 0 0 1-63.808 63.808H437.12a63.872 63.872 0 0 1-63.808-63.808l-0.448-162.624-139.52-0.128V451.456L512 715.84l283.392-268.8v-406.848z"  horiz-adv-x="1024" />

    
    <glyph glyph-name="_ZSYduoyuyanguanlid" unicode="&#59140;" d="M892.48 93.63199999999995a478.272 478.272 0 0 1 0.384 581.76l1.024 0.512-2.688 1.728A479.424 479.424 0 0 1 513.216 865.408L512 865.5360000000001h-1.472a480.768 480.768 0 1 1 0-961.536h1.408l1.344 0.128a479.424 479.424 0 0 1 376.448 185.728l4.48 2.944zM480 637.952a683.008 683.008 0 0 0-95.872 11.2A270.848 270.848 0 0 0 480 791.488z m0-63.552V416H343.168a830.4 830.4 0 0 0 22.592 172.16 748.608 748.608 0 0 1 114.24-13.76z m0-222.4v-157.696a748.416 748.416 0 0 1-114.048-13.888A828.608 828.608 0 0 0 343.232 352z m0-221.312v-152.64a269.952 269.952 0 0 0-95.552 141.44 682.88 682.88 0 0 0 95.552 11.2z m64 0a683.328 683.328 0 0 0 95.36-10.944 270.656 270.656 0 0 0-95.36-141.568z m0 63.68V352h136.576a828.8 828.8 0 0 0-22.656-171.328 749.12 749.12 0 0 1-113.92 13.696z m0 221.632V574.336a748.928 748.928 0 0 1 114.112 13.76 830.656 830.656 0 0 0 22.528-172.096z m0 221.952V791.36a271.424 271.424 0 0 0 95.68-142.336 682.752 682.752 0 0 0-95.68-11.072z m101.504 140.672a416.448 416.448 0 0 0 142.592-83.904 701.76 701.76 0 0 0-86.4-30.72 476.608 476.608 0 0 1-56.192 114.624z m-323.392-114.56a703.168 703.168 0 0 0-88.256 31.552 416.32 416.32 0 0 0 145.28 84.352 474.752 474.752 0 0 1-56.96-115.84z m-18.304-62.08A898.432 898.432 0 0 1 279.232 416H95.296a414.528 414.528 0 0 0 91.968 231.36 755.52 755.52 0 0 1 116.544-45.44zM279.232 352a897.088 897.088 0 0 1 24.832-185.344 755.456 755.456 0 0 1-116.224-45.248A414.592 414.592 0 0 0 95.36 352z m43.2-247.424a473.92 473.92 0 0 1 56.704-115.008 416.32 416.32 0 0 0-144.512 83.648 703.36 703.36 0 0 0 87.808 31.36z m379.008 0.32a702.08 702.08 0 0 0 86.144-30.592 416.384 416.384 0 0 0-142.08-83.392 475.968 475.968 0 0 1 55.936 113.92z m18.432 62.08a897.152 897.152 0 0 1 24.704 185.024h180.992a414.464 414.464 0 0 0-91.328-229.12 755.584 755.584 0 0 1-114.368 44.16zM925.696 416h-181.12a898.24 898.24 0 0 1-24.576 185.856 755.456 755.456 0 0 1 114.56 44.288A414.464 414.464 0 0 0 925.76 416z"  horiz-adv-x="1024" />

    
    <glyph glyph-name="_ZSYrenwuguanli" unicode="&#59141;" d="M879.936 849.92H144.064A96.192 96.192 0 0 1 48 753.7280000000001V17.91999999999996a96.192 96.192 0 0 1 96.064-96h735.872a96.192 96.192 0 0 1 96.064 96V753.792A96.192 96.192 0 0 1 879.936 849.856zM144.064-14.080000000000041a32.064 32.064 0 0 0-32.064 32V753.792a32.128 32.128 0 0 0 32.064 32.064h735.872a32.128 32.128 0 0 0 32.064-32.064V17.91999999999996a32.064 32.064 0 0 0-32.064-32zM911.808 633.6H112.064v-64h799.744v64zM815.168 741.76a32 32 0 0 1 0-64 32 32 0 0 1 0 64zM687.488 741.76a32 32 0 0 1 0-64 32 32 0 0 1 0 64zM559.808 741.76a32 32 0 1 1 32-32 32 32 0 0 1-32 32zM343.424 171.58399999999995h-85.76a32 32 0 0 1 0-64h85.76a32 32 0 0 1 0 64zM798.912 171.58399999999995h-256a32 32 0 0 1 0-64h256a32 32 0 0 1 0 64zM798.912 385.92h-256a32 32 0 0 1 0-64h256a32 32 0 1 1 0 64zM231.68 379.39200000000005a32 32 0 0 1-27.712-16 32 32 0 0 1 11.648-43.712l110.848-64a32 32 0 1 1 32 55.424l-110.784 64a31.872 31.872 0 0 1-16 4.288zM470.592 537.024a32 32 0 0 1-27.776-16l-128-221.632a32 32 0 0 1 11.648-43.712 32 32 0 0 1 43.712 11.712L498.24 488.96a32 32 0 0 1-27.648 48z"  horiz-adv-x="1024" />

    
    <glyph glyph-name="_ZSYcunchubiaoguanli" unicode="&#59142;" d="M512.256 865.792l0.128-64 371.072-209.92-0.448-416.512-371.392-209.152-371.072 209.92 0.448 416.512 371.2 209.152h0.064v64m0 0A64.256 64.256 0 0 1 480.704 857.6l-371.2-209.152a64.256 64.256 0 0 1-32.64-55.936l-0.32-416.32a64.256 64.256 0 0 1 32.64-56l370.88-209.6a64.256 64.256 0 0 1 63.232-0.064l371.2 209.152a64.256 64.256 0 0 1 32.64 55.936l0.32 416.32a64.256 64.256 0 0 1-32.64 56L543.872 857.472a64.192 64.192 0 0 1-31.616 8.32zM710.848 486.016a195.264 195.264 0 0 1-390.528 4.032 194.816 194.816 0 1 1 191.552-339.2 193.216 193.216 0 0 1 97.92-27.008 195.072 195.072 0 0 1 101.12 362.24zM515.392 616.64a131.776 131.776 0 0 0 128.896-105.152A185.28 185.28 0 0 1 512 487.808a193.536 193.536 0 0 1-97.536 27.136A127.616 127.616 0 0 1 417.92 450.56a130.24 130.24 0 0 0 40.768-8.32 193.856 193.856 0 0 1-31.488-54.144 131.072 131.072 0 0 0 88.128 228.544zM512 406.528a130.24 130.24 0 0 0 27.84-50.112 123.136 123.136 0 0 0-24.448-2.88 130.176 130.176 0 0 0-30.848 4.032A130.88 130.88 0 0 0 512 406.528zM282.688 319.36a129.536 129.536 0 0 0 49.024 100.864 194.944 194.944 0 0 1 82.56-101.76 194.24 194.24 0 0 1 35.84-111.488 126.72 126.72 0 0 1 40.768 23.68 125.184 125.184 0 0 1 11.648 13.056 131.712 131.712 0 0 0-20.032 49.152 194.816 194.816 0 0 1 32.896-3.328 166.656 166.656 0 0 1 27.456 2.432 131.52 131.52 0 0 0-260.16 27.392z m327.04-131.52a125.44 125.44 0 0 0-44.288 8.96 191.68 191.68 0 0 1-0.512 245.76 122.112 122.112 0 0 0 76.16 4.224 131.648 131.648 0 0 0-17.28-35.968 192.96 192.96 0 0 0 16.64-74.88 197.568 197.568 0 0 1 56.832 80.96 131.072 131.072 0 0 0-87.488-229.12z"  horiz-adv-x="1024" />

    
    <glyph glyph-name="_ZSYyewujianmo" unicode="&#59143;" d="M884.864 192h-64.128v-80.512h-82.24v-62.976h82.24V-32h64.128v80.512h82.24v62.976h-82.24V192zM947.52 544.0640000000001V635.52a96 96 0 0 1-96 96H609.088l-11.2 28.032H147.072a96 96 0 0 1-96-96v-581.632a96 96 0 0 1 96-96h515.072v64H147.072a32 32 0 0 0-32 32V663.552a32 32 0 0 0 32 32h407.424l85.952-215.488h289.6v-230.272h64V544.0640000000001zM634.56 667.52h216.96a32 32 0 0 0 32-32V544h-199.68z"  horiz-adv-x="1024" />

    
    <glyph glyph-name="_ZSYEFDCpeizhi" unicode="&#59144;" d="M728 227.96799999999996L535.04 462.72a90.88 90.88 0 0 1 36.992 71.296 89.984 89.984 0 0 1-180.032 0 92.544 92.544 0 0 1 67.84-86.656l-67.84-297.344a27.072 27.072 0 0 1 11.776-22.144 37.632 37.632 0 0 1 24.256-7.872l131.968 96 150.016-24a22.528 22.528 0 0 1 17.984 12.032 19.648 19.648 0 0 1 0 23.936z m-182.848 36.672l-88.96-61.44 49.92 216 141.696-170.88zM643.2 107.84000000000003a31.936 31.936 0 0 1-12.48-2.56 300.928 300.928 0 0 0-50.112-16.384l-1.472-0.384-1.28-0.256-2.88-0.64-1.408-0.32-1.472-0.192-2.816-0.64a32.192 32.192 0 0 1-25.408-37.504 31.808 31.808 0 0 1 31.232-25.92 32.256 32.256 0 0 1 5.76 0.512l1.92 0.384h0.064l2.24 0.448 1.344 0.32 1.472 0.256 0.256 0.064 0.832 0.192h0.192l0.192 0.064h0.192l0.32 0.128h0.128l0.256 0.064h0.064l0.384 0.128h0.128l0.256 0.064 0.896 0.192 1.408 0.384 1.536 0.32q17.728 4.032 34.752 9.856l2.112 0.704 0.512 0.192 1.6 0.576 2.112 0.704 2.112 0.768 0.256 0.128 0.256 0.064 1.6 0.64 2.112 0.768a357.12 357.12 0 0 1 13.44 5.44 32 32 0 0 1-12.544 61.44zM464 84.928a301.376 301.376 0 0 0-51.2 12.8l-1.408 0.448-1.28 0.512-2.688 0.96-1.408 0.448-1.28 0.576-2.752 1.024a32 32 0 0 1-23.552-59.52l0.256-0.064 1.664-0.64h0.064l0.192-0.128 1.728-0.64 1.28-0.448 1.28-0.512 3.072-1.152 0.96-0.32 1.408-0.448 1.536-0.576q13.952-4.864 28.416-8.576l0.256-0.064h0.064l0.256-0.064 1.344-0.384h0.32l0.256-0.128h0.256l1.088-0.32h0.256l0.064-0.064h0.192l0.128-0.064 0.192-0.064 0.256-0.064 0.64-0.128 0.192-0.064h0.064l0.256-0.064 0.256-0.064h0.064l0.192-0.064h0.064l0.192-0.064h0.064l0.256-0.064 0.32-0.064 0.256-0.064h0.064l0.192-0.064h0.064l0.192-0.064h0.128l0.128-0.064h0.128l0.128-0.064h0.128l0.128-0.064h0.128l0.192-0.064h0.128l0.192-0.064h0.064l0.192-0.064h0.128l0.128-0.064h0.128l0.128-0.064h0.128l0.128-0.064h0.128l0.128-0.064h0.192l0.064-0.064h0.192l0.256-0.064h0.064l0.192-0.064h0.128l0.128-0.064h0.128l0.128-0.064h0.256l0.128-0.064h0.128l0.128-0.064h0.064l0.64-0.192h0.32l0.192-0.064h0.064l0.192-0.064h0.064l0.192-0.064h0.064l0.192-0.064 0.96-0.192h0.256v-0.064h0.256l0.256-0.128h0.256l0.256-0.064 0.704-0.192h0.256l0.192-0.064h0.256l0.064-0.064h0.256l0.192-0.064 1.024-0.256h0.256l0.192-0.064h0.256l0.064-0.064h0.192l1.28-0.256 0.192-0.064h0.256l0.064-0.064h0.192l1.28-0.256h0.192v-0.064h0.32l0.192-0.064 0.256-0.064 0.96-0.192h0.256l0.256-0.064 0.256-0.064 1.472-0.256h0.256l0.256-0.064 0.256-0.064 1.28-0.192 0.256-0.064h0.192l0.256-0.064 0.256-0.064 1.024-0.192h0.512l0.192-0.064h0.064l0.192-0.064a32 32 0 0 1 10.112 63.232zM848 400.96h-1.472a32 32 0 0 1-32-30.592 304.128 304.128 0 0 0-6.848-52.288l-0.256-1.536-0.384-1.28-0.64-2.88-0.32-1.408-0.384-1.408-0.704-2.816a32.128 32.128 0 0 1 31.104-40.128 31.808 31.808 0 0 1 30.72 23.552V290.55999999999995l0.256 0.832v0.128l0.064 0.128 0.64 2.688 0.32 1.344 0.384 1.344 0.832 3.52 0.064 0.256 0.064 0.384 0.32 1.472 0.384 1.472q1.664 7.424 3.008 14.976l0.32 1.984 0.064 0.256 0.256 1.472v0.256l0.064 0.256 0.256 1.472v0.256a367.488 367.488 0 0 1 4.416 42.688 32 32 0 0 1-30.592 33.28zM787.2 225.15200000000004a32 32 0 0 1-26.24-13.76 305.408 305.408 0 0 0-33.792-40.576l-1.088-1.088-1.024-0.96-2.048-2.048-1.024-1.024-1.088-1.024-2.112-1.92a32.192 32.192 0 0 1-1.408-45.44 31.808 31.808 0 0 1 44.992-1.536l0.064 0.128h0.064l1.28 1.28h0.064l0.192 0.192 0.256 0.256 0.192 0.192 0.256 0.192v0.064l0.32 0.32 0.256 0.192 1.024 1.024 0.96 0.896 2.368 2.304 0.128 0.192 0.32 0.256 0.256 0.256 1.024 1.088 1.088 1.024q8.576 8.64 16.576 17.92l0.32 0.32 0.064 0.064 0.32 0.32v0.064l0.32 0.384 0.256 0.256 0.32 0.384 0.128 0.128 0.192 0.256 0.128 0.128 0.192 0.256 0.128 0.128 0.192 0.192 0.128 0.256 0.128 0.128 0.256 0.256 0.128 0.128 0.192 0.256 0.128 0.128 0.192 0.256 0.128 0.128 0.192 0.256 0.064 0.064 0.256 0.32 0.064 0.128 0.256 0.256 0.064 0.128 0.256 0.256 0.128 0.128 0.256 0.32 0.256 0.32 0.32 0.384v0.064l0.32 0.32 0.064 0.064 0.256 0.384 0.32 0.384 0.64 0.768 0.32 0.384 0.32 0.384 0.32 0.384 0.96 1.152 0.32 0.384 0.256 0.384v0.064l0.32 0.384 0.64 0.768 0.32 0.384 0.32 0.384 0.32 0.384 0.64 0.832 0.256 0.384 0.32 0.384 0.256 0.384h0.064l0.256 0.384 0.32 0.448 0.32 0.32v0.064l0.256 0.32 0.064 0.128 0.256 0.32 0.064 0.064 0.256 0.32v0.064l0.32 0.32v0.128l0.256 0.256 0.064 0.064 0.256 0.32 0.064 0.128 0.192 0.32 0.128 0.128 0.192 0.256 0.128 0.128 0.192 0.256 0.128 0.192 0.128 0.192 0.192 0.192 0.128 0.192 0.128 0.192 0.128 0.192 0.192 0.192 0.128 0.256 0.128 0.192 0.064 0.064 0.256 0.384h0.064l0.32 0.448 5.44 7.68a32 32 0 0 1-26.304 50.112zM372.288 690.304a31.808 31.808 0 0 1-43.392 11.712l-0.256-0.128-2.56-1.536-0.832-0.512-1.152-0.704-1.28-0.704-0.192-0.192-2.304-1.344-1.088-0.64-1.216-0.832-1.408-0.832-0.128-0.128-0.192-0.128-0.192-0.064-0.256-0.192-0.128-0.064-0.32-0.192-0.128-0.128-0.32-0.192-0.128-0.064-0.32-0.192-0.064-0.064-0.32-0.192-0.128-0.064-0.256-0.192-0.128-0.064-0.32-0.256h-0.128l-0.32-0.256-0.128-0.064-0.32-0.192-0.064-0.064-0.32-0.192-0.064-0.064-0.32-0.256h-0.128l-0.32-0.256-0.128-0.064-0.32-0.192-0.064-0.064-0.384-0.256-0.384-0.256h-0.064l-0.32-0.256-0.064-0.064-0.384-0.256h-0.064l-0.32-0.256H308.48l-0.32-0.256-0.064-0.064-0.384-0.256-0.384-0.256-0.384-0.256-0.064-0.064-0.384-0.256H306.56l-0.384-0.256v-0.064l-0.384-0.256h-0.064l-0.32-0.256H305.28l-0.384-0.256v-0.064l-0.384-0.256h-0.064l-0.384-0.256-0.064-0.064-0.32-0.256h-0.128l-0.32-0.256-0.064-0.064-0.32-0.192-0.064-0.064-0.32-0.256-0.128-0.064-0.32-0.192-0.064-0.128-0.32-0.192-0.128-0.064-0.32-0.256h-0.064l-0.256-0.256-0.192-0.064-0.256-0.192-0.128-0.128-0.256-0.192-0.128-0.064-0.32-0.192-0.128-0.128-0.32-0.192-0.128-0.128-0.192-0.128-0.192-0.128-0.192-0.192-0.192-0.128-0.256-0.128-0.128-0.128-0.256-0.192-0.192-0.128-0.256-0.192-0.192-0.128-0.128-0.128-0.256-0.128-0.192-0.128-0.192-0.192-0.192-0.128-0.192-0.128-0.256-0.192-0.192-0.128-0.192-0.192-0.192-0.128-0.128-0.064-0.32-0.256-0.128-0.064-0.256-0.192-0.128-0.128-0.32-0.192-0.128-0.128-0.192-0.128-0.192-0.192-0.256-0.128-0.064-0.064-0.32-0.256-0.128-0.064-0.32-0.256-0.064-0.064-0.384-0.256h-0.064l-1.088-0.896-0.384-0.32-0.448-0.32-1.152-0.832-0.384-0.32-0.448-0.384-1.536-1.152-0.384-0.32-0.448-0.384-1.088-0.832-0.448-0.32-0.448-0.384-0.384-0.32-0.64-0.512H282.24l-0.384-0.384-0.448-0.32-0.384-0.32-0.64-0.576h-0.128l-0.32-0.32-0.128-0.064-0.256-0.256-0.128-0.064-0.256-0.256-0.128-0.128-0.256-0.128-0.192-0.192-0.128-0.128-0.256-0.192-0.192-0.128-0.128-0.192-0.256-0.128-0.128-0.192-0.256-0.128-0.192-0.192-0.128-0.128-0.256-0.192-0.128-0.128-0.256-0.192-0.128-0.128-0.256-0.192-0.128-0.128-0.256-0.192-0.128-0.128-0.256-0.192-0.064-0.064-0.32-0.256-0.128-0.128-0.256-0.256h-0.128l-0.32-0.32-0.384-0.32-0.384-0.32-0.384-0.32-0.32-0.32-6.784-6.016a32 32 0 0 1 43.008-47.36 304.832 304.832 0 0 0 42.048 31.936l1.28 0.832 1.216 0.64 2.432 1.536 1.28 0.832 1.28 0.64 2.432 1.536a32.192 32.192 0 0 1 11.648 43.84zM753.472 618.432a31.808 31.808 0 0 1-3.456 44.8l-0.256 0.192-0.64 0.576-0.64 0.512-0.128 0.064-0.128 0.128-1.472 1.28-1.024 0.768-1.088 0.96-2.368 1.92-0.64 0.512-0.192 0.192-1.28 0.96-1.28 1.024-5.12 3.968-0.384 0.32-0.384 0.256-0.064 0.064-0.32 0.256-0.128 0.064-0.256 0.256h-0.128l-0.256 0.256-0.128 0.064-0.256 0.256-0.128 0.064-0.32 0.192-0.128 0.128-0.256 0.192-0.192 0.128-0.128 0.128-0.256 0.192-0.192 0.064-0.256 0.256-0.128 0.064-0.32 0.256-0.064 0.064-0.256 0.128-0.384 0.32h-0.064l-0.384 0.32h-0.064a368 368 0 0 1-32.64 21.248l-0.384 0.32h-0.064l-0.384 0.256h-0.128l-0.384 0.256h-0.064l-0.256 0.192-0.192 0.064-0.256 0.192-0.128 0.064-0.32 0.128-0.128 0.128-0.32 0.128-0.192 0.128-0.192 0.128-0.256 0.128-0.128 0.128-0.32 0.128-0.128 0.064-0.32 0.192-0.128 0.064-0.384 0.192-0.384 0.256-0.448 0.256-0.448 0.256-3.52 1.92a32 32 0 1 1-30.336-56.384 304.128 304.128 0 0 0 44.16-28.928l1.216-0.96 1.088-0.896 2.24-1.792 1.152-0.896 1.088-0.96 2.24-1.92a32.192 32.192 0 0 1 45.184 3.776zM546.752 684.928l2.88-0.384 1.408-0.128 1.472-0.192 2.88-0.448a32.64 32.64 0 0 1 4.416-0.256 32.192 32.192 0 0 1 31.808 27.52 31.808 31.808 0 0 1-26.88 36.096H564.48l-1.28 0.192-0.512 0.064-0.384 0.064-1.344 0.192h-0.256l-1.472 0.192-1.472 0.192h-0.256l-0.384 0.128h-0.704l-0.448 0.128h-0.32l-1.216 0.192-0.832 0.064-1.472 0.128-1.664 0.192q-15.36 1.6-31.168 1.92H516.928l-0.128 0.064H504l-0.256-0.064h-1.792a368.32 368.32 0 0 1-45.568-4.096l-0.832-0.128h-0.256l-0.256-0.064h-0.256l-0.128-0.064h-0.192l-0.32-0.064h-0.128l-0.128-0.064h-0.256l-0.192-0.064h-0.256l-0.256-0.064-4.608-0.832a32 32 0 1 1 11.008-63.04 307.2 307.2 0 0 0 84.48 2.944l1.536-0.128zM275.648 194.55999999999995l-0.96 1.152-0.832 1.152-1.792 2.304-0.896 1.088-0.896 1.216-1.728 2.304a32 32 0 0 1-51.52-37.952l0.064-0.128 2.176-2.88 0.128-0.192 0.96-1.152 0.832-1.152 0.192-0.256 1.088-1.408 0.256-0.32 0.064-0.128 0.128-0.128 0.896-1.088 0.96-1.152 0.96-1.28q9.728-12.16 20.48-23.36l1.28-1.472 0.384-0.384 0.32-0.32 0.384-0.384 1.024-1.088 0.384-0.32 0.32-0.384 1.408-1.408 0.384-0.32 1.728-1.792q7.808-7.744 16.128-15.04a32 32 0 0 1 42.24 48.128 305.6 305.6 0 0 0-36.48 38.144zM797.44 485.76l0.512-1.408 0.384-1.344 0.96-2.752 0.512-1.344 0.384-1.408 0.896-2.752a32.128 32.128 0 0 1 40.256-20.928 31.808 31.808 0 0 1 20.928 39.68l-0.448 1.28v0.256l-0.128 0.192V495.36l-0.768 2.176-0.448 1.28-0.384 1.344-0.192 0.448-1.088 3.2-0.064 0.384-0.576 1.408-0.512 1.536v0.128l-0.128 0.32v0.128l-0.192 0.32v0.128l-0.192 0.384V508.8l-0.128 0.384v0.064l-0.192 0.384-0.192 0.448V510.08l-0.128 0.448-0.064 0.064-0.128 0.384v0.128l-0.192 0.384L855.936 512l-0.128 0.448v0.064l-0.192 0.384v0.128l-0.192 0.384v0.064l-0.192 0.448-0.192 0.448-0.128 0.448-0.192 0.448v0.064l-0.192 0.448-0.192 0.448-0.192 0.512-0.128 0.448-0.192 0.448-0.192 0.512-0.384 0.896-0.192 0.448-0.192 0.512-0.192 0.448-0.384 0.896v0.064l-0.128 0.448-0.192 0.448-0.256 0.512-0.32 0.896-0.192 0.448-0.192 0.448v0.064l-0.192 0.448-0.192 0.448-0.192 0.448-0.192 0.448-0.192 0.448v0.064l-0.256 0.448-0.192 0.448-0.128 0.448h-0.064l-0.192 0.448v0.064l-0.192 0.384V529.28l-0.192 0.384v0.128l-0.192 0.32v0.064l-0.192 0.384v0.128l-0.192 0.32v0.128l-0.192 0.384-0.064 0.128-0.128 0.32-0.064 0.128-0.128 0.256-0.064 0.128-0.192 0.384v0.128l-0.192 0.32v0.128l-0.192 0.32-0.064 0.192-0.128 0.256-0.064 0.192-0.128 0.256-0.064 0.192-0.128 0.256-0.128 0.192-0.128 0.32-0.064 0.128-0.128 0.256-0.064 0.256-0.128 0.192-0.128 0.256-0.064 0.192-0.128 0.32-0.064 0.128-0.128 0.256-0.128 0.256-0.064 0.192-0.064 0.128-0.192 0.384v0.128l-0.192 0.32-0.064 0.128-0.192 0.384V539.52l-0.384 0.768-0.256 0.512-0.256 0.512-0.832 1.728q-5.504 11.456-11.776 22.4a32 32 0 0 1-55.488-31.808 301.504 301.504 0 0 0 21.952-47.872zM180.8 443.52a32 32 0 0 1 39.488 22.208 301.184 301.184 0 0 0 18.56 49.28l0.64 1.408 0.64 1.28 1.28 2.56 0.64 1.28 0.64 1.28 1.408 2.56a32.192 32.192 0 0 1-13.44 43.392 31.808 31.808 0 0 1-42.944-13.12l-1.984-3.776-0.64-1.28-0.64-1.152-0.832-1.6-0.128-0.32-0.576-1.152-0.128-0.32-0.256-0.448-0.64-1.28-0.704-1.536q-5.12-10.624-9.536-21.568l-0.064-0.192-0.064-0.128v-0.128l-0.064-0.128-0.064-0.128-0.064-0.128v-0.064l-0.128-0.192v-0.064l-0.064-0.192v-0.064l-0.384-0.768-0.064-0.256-0.128-0.256-0.064-0.256a363.52 363.52 0 0 1-11.904-35.392 32 32 0 0 1 22.208-39.36zM221.568 297.72799999999995a302.656 302.656 0 0 0-10.496 51.712l-0.192 1.472-0.128 1.408-0.256 2.88-0.192 1.472-0.064 1.408-0.256 2.944a32.192 32.192 0 0 1-32 29.568l-2.432-0.064a31.808 31.808 0 0 1-29.44-33.984v-0.32l0.192-1.728v-0.832l0.064-0.128v-0.256l0.128-0.96 0.128-1.344 0.128-1.408v-0.384l0.064-0.832v-0.448l0.064-0.192v-0.064l0.256-2.304 0.192-1.472 0.128-1.536q1.92-16.384 5.12-32.256l0.128-0.576 0.256-1.408 0.064-0.256 0.384-1.664 0.128-0.576 0.32-1.664q2.816-12.416 6.4-24.512a32 32 0 0 1 61.312 18.304zM879.936 848H144.064A96.192 96.192 0 0 1 48 751.936V16a96.192 96.192 0 0 1 96.064-96.064h735.872a96.192 96.192 0 0 1 96.064 96.064V751.936A96.192 96.192 0 0 1 879.936 848z m32.064-831.936a32.064 32.064 0 0 0-32.064-32.064H144.064a32.064 32.064 0 0 0-32.064 32.064V751.936a32.128 32.128 0 0 0 32.064 32.064h735.872a32.128 32.128 0 0 0 32.064-32.064z"  horiz-adv-x="1024" />

    
    <glyph glyph-name="_ZSYquanxianguanli" unicode="&#59130;" d="M539.392 75.20000000000005h96a32 32 0 0 0 0-64h-128a31.872 31.872 0 0 0-32 32V365.376a256 256 0 0 0-215.872 318.592l-124.224 0.128a28.992 28.992 0 0 1-31.36-28.992l-0.768-665.6a32 32 0 0 1 32-32l752.896-1.92a32 32 0 0 1 32 32V652.608a32 32 0 0 1-32 32h-133.056a256.192 256.192 0 0 0-215.68-319.168v-119.04h96a32 32 0 0 0 0-64h-96zM285.632 747.456a256.128 256.128 0 0 0 443.52 0h191.104a64 64 0 0 0 64-64V-43.51999999999998a64 64 0 0 0-64-64L103.68-105.60000000000002a64 64 0 0 0-64 64V686.208a61.248 61.248 0 0 0 63.552 61.184z m221.76-320a192 192 0 1 1-192 192 192 192 0 0 1 192-192z"  horiz-adv-x="1024" />

    
    <glyph glyph-name="_ZSYzhibiaoguanli" unicode="&#59131;" d="M256 800H128c-19.2 0-32-12.8-32-32v-96H32V800c0 38.4 25.6 64 64 64h160v-64z m0-832v-64H96c-38.4 0-64 25.6-64 64V96h64v-96c0-19.2 12.8-32 32-32h128zM768 800V864h160c38.4 0 64-25.6 64-64v-128h-64v96c0 19.2-12.8 32-32 32H768z m0-832h128c6.4 0 19.2 6.4 25.6 6.4 6.4 6.4 6.4 12.8 6.4 25.6v96h64v-128c0-38.4-25.6-64-64-64H768v64zM512 768c-211.2 0-384-172.8-384-384s172.8-384 384-384 384 172.8 384 384-172.8 384-384 384z m300.8-492.8l-32 19.2c-12.8 6.4-32 0-44.8-12.8-6.4-12.8 0-32 12.8-44.8l38.4-19.2c-89.6-153.6-288-198.4-441.6-102.4-44.8 25.6-76.8 57.6-102.4 102.4l38.4 19.2c12.8 6.4 19.2 25.6 12.8 44.8-12.8 6.4-32 12.8-44.8 6.4l-32-19.2c-32 76.8-32 160 0 236.8l32-19.2c12.8-6.4 32-6.4 44.8 12.8 6.4 12.8 6.4 32-12.8 44.8l-32 19.2c51.2 76.8 140.8 128 236.8 140.8v-38.4c0-19.2 12.8-32 32-32s32 12.8 32 32V704c96-12.8 172.8-64 224-134.4l-32-25.6c-12.8-12.8-19.2-32-6.4-44.8 12.8-12.8 32-19.2 44.8-6.4l32 19.2c19.2-51.2 32-102.4 25.6-160-12.8-25.6-19.2-51.2-25.6-76.8zM512 435.2c-6.4 0-19.2 0-25.6-6.4L409.6 512c-12.8 12.8-32 12.8-44.8 0-12.8-12.8-12.8-32 0-44.8l76.8-76.8 6.4-6.4c0-6.4-6.4-12.8-6.4-19.2 0-38.4 32-70.4 70.4-70.4 38.4 0 70.4 32 70.4 70.4 6.4 38.4-25.6 70.4-70.4 70.4z"  horiz-adv-x="1024" />

    
    <glyph glyph-name="_ZSYmeijuzidian" unicode="&#59132;" d="M339.2 569.6h345.6a29.312 29.312 0 0 1 25.6 32 29.312 29.312 0 0 1-25.6 32H339.2a30.208 30.208 0 0 1-32-32 34.304 34.304 0 0 1 32-32z m0-192h345.6a29.312 29.312 0 0 1 25.6 32 29.312 29.312 0 0 1-25.6 32H339.2a34.304 34.304 0 0 1-32-32 30.208 30.208 0 0 1 32-32zM928 134.39999999999998V790.4a87.488 87.488 0 0 1-89.6 89.6H185.6a87.488 87.488 0 0 1-89.6-89.6V44.799999999999955a156.032 156.032 0 0 1 147.2-160h684.8v64c-34.56 0-66.304 38.464-66.304 89.664 0 57.6 31.744 95.936 66.304 95.936zM192 816h640a30.208 30.208 0 0 0 32-32V192H243.2a134.784 134.784 0 0 1-83.2-32V784a30.208 30.208 0 0 0 32 32z m-32-774.208A80.128 80.128 0 0 0 246.208 128h583.488a139.648 139.648 0 0 1-33.152-86.208 158.4 158.4 0 0 1 33.152-92.8H246.208a84.672 84.672 0 0 0-86.208 92.8z"  horiz-adv-x="1024" />

    
    <glyph glyph-name="_ZSYbanbenxinxi" unicode="&#59133;" d="M844.224-94.976H182.592a96.128 96.128 0 0 0-96.064 96.064V767.488a96.128 96.128 0 0 0 96 96h481.28l276.48-253.44v-608.96a96.128 96.128 0 0 0-96-96.064zM182.592 799.552a32.064 32.064 0 0 1-32.064-32.064v-766.4a32.128 32.128 0 0 1 32-32.064h661.76a32.128 32.128 0 0 1 32 32.064V581.952l-237.376 217.6zM190.976 416.256m32 0l587.776 0q32 0 32-32l0 0q0-32-32-32l-587.776 0q-32 0-32 32l0 0q0 32 32 32ZM190.976 169.216m32 0l587.776 0q32 0 32-32l0 0q0-32-32-32l-587.776 0q-32 0-32 32l0 0q0 32 32 32ZM190.976 663.36m32 0l257.024 0q32 0 32-32l0 0q0-32-32-32l-257.024 0q-32 0-32 32l0 0q0 32 32 32ZM847.36 609.7280000000001h-151.232a32.064 32.064 0 0 0-32 32V778.24l-64 58.816v-195.2a96.128 96.128 0 0 1 96-96h220.928z"  horiz-adv-x="1024" />

    
    <glyph glyph-name="_ZSYxitongxuanxiang" unicode="&#59134;" d="M236.8 51.200000000000045v-64h217.6l-64 64zM358.4 185.60000000000002V192H128c-19.2 0-38.4 19.2-38.4 38.4V710.4c0 19.2 12.8 32 32 32h716.8c19.2 0 32-12.8 32-32v-166.4l64-32V761.6c0 25.6-19.2 44.8-44.8 44.8H89.6c-32 0-64-25.6-64-64v-569.6c0-25.6 19.2-44.8 44.8-44.8h275.2l12.8 57.6zM697.6 339.20000000000005c-57.6 0-102.4-44.8-102.4-102.4 0-57.6 44.8-102.4 102.4-102.4 57.6 0 102.4 44.8 102.4 102.4s-44.8 102.4-102.4 102.4z m38.4-102.4c-12.8-12.8-25.6-12.8-38.4 0-12.8 12.8-12.8 25.6 0 38.4 12.8 12.8 25.6 12.8 38.4 0s12.8-25.6 0-38.4zM985.6 294.4c0 19.2-12.8 25.6-25.6 25.6-44.8 0-76.8 32-76.8 76.8 0 12.8 0 19.2 6.4 32s0 32-12.8 38.4L806.4 512h-12.8c-12.8 0-25.6 0-32-6.4-12.8-19.2-38.4-32-57.6-32-25.6 6.4-44.8 19.2-57.6 32-12.8 6.4-32 12.8-44.8 6.4l-76.8-44.8c-12.8-6.4-19.2-25.6-12.8-38.4 0-12.8 6.4-19.2 6.4-32 0-38.4-32-76.8-76.8-76.8-12.8 0-25.6-6.4-25.6-25.6-6.4-19.2-6.4-38.4-6.4-57.6 0-19.2 0-38.4 6.4-57.6 6.4-19.2 12.8-25.6 25.6-25.6 44.8 0 76.8-32 76.8-76.8 0-12.8 0-19.2-6.4-32s0-32 12.8-38.4l70.4-38.4c12.8-6.4 32 0 38.4 6.4 19.2 19.2 38.4 32 64 32 25.6-6.4 44.8-19.2 64-38.4 6.4-6.4 19.2-12.8 25.6-12.8h12.8l76.8 38.4c12.8 6.4 19.2 25.6 12.8 38.4-6.4 6.4-6.4 19.2-6.4 32 0 44.8 32 76.8 76.8 76.8 12.8 0 19.2 12.8 25.6 25.6 6.4 19.2 6.4 38.4 6.4 57.6 0 32 0 51.2-6.4 70.4z m-70.4-96c-51.2 0-89.6-44.8-89.6-96 0-12.8 0-25.6 6.4-38.4l-57.6-32c-6.4 6.4-12.8 12.8-25.6 19.2-12.8 12.8-32 19.2-51.2 19.2-19.2 0-38.4-6.4-51.2-19.2l-19.2-19.2-64 32c6.4 12.8 12.8 25.6 12.8 38.4 0 51.2-38.4 89.6-89.6 96 0 12.8-6.4 25.6-6.4 44.8 0 12.8 0 25.6 6.4 44.8 51.2-6.4 89.6 38.4 89.6 89.6 0 12.8-6.4 25.6-6.4 38.4l57.6 32s12.8-6.4 19.2-19.2c12.8-12.8 32-19.2 51.2-19.2 19.2 0 38.4 6.4 51.2 19.2L768 448l64-38.4c-6.4-12.8-6.4-25.6-6.4-38.4 0-51.2 38.4-89.6 89.6-96 0-12.8 6.4-25.6 6.4-44.8 0-6.4-6.4-19.2-6.4-32z"  horiz-adv-x="1024" />

    
    <glyph glyph-name="_ZSYshujuluru" unicode="&#59135;" d="M136.443946 509.525876m31.92418 0l191.54508 0q31.92418 0 31.92418-31.92418l0 0q0-31.92418-31.92418-31.92418l-191.54508 0q-31.92418 0-31.92418 31.92418l0 0q0 31.92418 31.92418 31.92418ZM136.443946 382.08454900000004m31.92418 0l191.54508 0q31.92418 0 31.92418-31.92418l0 0q0-31.92418-31.92418-31.92418l-191.54508 0q-31.92418 0-31.92418 31.92418l0 0q0 31.92418 31.92418 31.92418ZM723.721162-32.35515699999996a31.988028 31.988028 0 0 0-31.92418-31.92418H105.477491a31.988028 31.988028 0 0 0-31.988028 31.92418V604.9791740000001a31.988028 31.988028 0 0 0 31.92418 31.988029h409.331836l48.460906 63.84836h-457.792742a95.900237 95.900237 0 0 1-95.772541-95.77254v-637.270483a95.900237 95.900237 0 0 1 95.772541-95.836388h586.255642a95.900237 95.900237 0 0 1 95.836389 95.77254V490.052126l-63.84836-84.152138zM185.479486 739.890759a31.988028 31.988028 0 0 0 31.92418 31.924181h399.754583l48.397057 63.84836H217.467515a95.900237 95.900237 0 0 1-95.836389-95.772541v-38.947499h63.84836zM843.500686 563.7969820000001v-461.112857a32.051877 32.051877 0 0 0-31.92418-32.051877h-21.963836v-63.84836h21.899987a95.900237 95.900237 0 0 1 95.836389 95.900237v545.264996zM108.687327 67.43456900000001m25.106777 19.718089l150.640659 118.308536q25.106777 19.718089 44.824866-5.388687l0 0q19.718089-25.106777-5.388687-44.824866l-150.64066-118.308536q-25.106777-19.718089-44.824865 5.388688l0 0q-19.718089 25.106777 5.388687 44.824865ZM298.783534 225.21167400000002m25.098859-19.728167l150.593155-118.368997q25.098859-19.728166 5.370693-44.827025l0 0q-19.728166-25.098859-44.827025-5.370693l-150.593155 118.368997q-25.098859 19.728166-5.370693 44.827025l0 0q19.728166 25.098859 44.827025 5.370693ZM410.06006 67.47387500000002m25.106776 19.718089l181.321141 142.404041q25.106777 19.718089 44.824865-5.388688l0 0q19.718089-25.106777-5.388687-44.824865l-181.32114-142.404041q-25.106777-19.718089-44.824866 5.388687l0 0q-19.718089 25.106777 5.388687 44.824866ZM454.923749 285.42296799999997m30.889385-8.062204l158.524327-41.37523q30.889386-8.062204 22.827182-38.95159l0 0q-8.062204-30.889386-38.95159-22.827181l-158.524326 41.37523q-30.889386 8.062204-22.827182 38.95159l0 0q8.062204 30.889386 38.951589 22.827181ZM795.103629 818.551939l88.238434-75.660307-241.538347-281.698965-88.74922-14.046639 0.446938 89.706946 241.602195 281.698965M789.101883 887.06123a38.9475 38.9475 0 0 1-30.391819-12.705824l-260.50131-303.790498a37.032049 37.032049 0 0 1-8.55568-24.262377l-0.638484-131.846863a39.522135 39.522135 0 0 1 37.287443-35.81893 26.497069 26.497069 0 0 1 4.150143 0.319242l130.186806 20.62302a37.032049 37.032049 0 0 1 22.730017 12.131188l260.501309 303.790498a55.164983 55.164983 0 0 1-17.111361 74.255643L834.753461 868.672902a71.957102 71.957102 0 0 1-45.58773 18.324479z"  horiz-adv-x="1024" />

    
    <glyph glyph-name="_ZSYzhutiguanli" unicode="&#59136;" d="M204.032 603.072m32 0l328 0q32 0 32-32l0 0q0-32-32-32l-328 0q-32 0-32 32l0 0q0 32 32 32ZM204.032 603.072m32 0l328 0q32 0 32-32l0 0q0-32-32-32l-328 0q-32 0-32 32l0 0q0 32 32 32ZM204.032 278.65599999999995m32 0l440 0q32 0 32-32l0 0q0-32-32-32l-440 0q-32 0-32 32l0 0q0 32 32 32ZM204.032 150.65599999999995m32 0l440 0q32 0 32-32l0 0q0-32-32-32l-440 0q-32 0-32 32l0 0q0 32 32 32ZM684.032 571.072m-32 0a32 32 0 1 1 64 0 32 32 0 1 1-64 0ZM869.888 870.912H274.368a96.128 96.128 0 0 1-96-96v-39.04h64v39.04a32.064 32.064 0 0 0 32 32h595.52a32.064 32.064 0 0 0 32-32v-638.72a32.128 32.128 0 0 0-32-32.128h-21.952v-64h21.952a96.128 96.128 0 0 1 96 96.064v638.72a96.128 96.128 0 0 1-96 96.064zM749.824 735.6800000000001H162.176a96.128 96.128 0 0 1-96-96.064v-638.72a96.128 96.128 0 0 1 96-96.128h587.648a96.128 96.128 0 0 1 96 96.064v638.72a96.128 96.128 0 0 1-96 96.128z m32-734.848a32.064 32.064 0 0 0-32-32H162.176a32.064 32.064 0 0 0-32 32V406.656h651.712z m0 469.824H130.176v168.96a32.064 32.064 0 0 0 32.064 32h587.648a32.064 32.064 0 0 0 32-32z"  horiz-adv-x="1024" />

    
    <glyph glyph-name="_ZSYwannengtubiao" unicode="&#59137;" d="M221.952 640h192.256a32 32 0 0 1 0 64H221.952a32 32 0 0 1 0-64zM221.568 512h257.024a32 32 0 0 1 0 64H221.568a32 32 0 0 1 0-64zM662.4 863.296H181.12a96.128 96.128 0 0 1-96-96.064v-766.4a96.128 96.128 0 0 1 96-96.128h661.76a96.128 96.128 0 0 1 96 96.128V609.856z m0.32-87.104l181.888-166.72h-149.888a32.064 32.064 0 0 0-32 32z m212.16-775.36a32.128 32.128 0 0 0-32-32.128H181.12a32.128 32.128 0 0 0-32 32.128V767.232a32.064 32.064 0 0 0 32 32h417.6v-157.696a96.128 96.128 0 0 1 96-96h180.16zM342.144 417.664L317.312 352.64l307.008 2.752s51.648 5.504 52.736-44.096a52.48 52.48 0 0 0-49.6-53.12H519.232l-18.048-61.44s75.52 0 118.4-4.672c23.68-2.56 33.536-31.104 24.768-57.856a65.152 65.152 0 0 0-45.056-41.344l-221.056-4.736 73.28 225.536-67.136-0.896L288 24.32000000000005s272 0.64 306.304 2.24a121.6 121.6 0 0 1 117.824 104.512 101.76 101.76 0 0 1-45.184 91.712 106.304 106.304 0 0 1 66.56 118.016 116.928 116.928 0 0 1-88 79.104z"  horiz-adv-x="1024" />

    
    <glyph glyph-name="16_hxitongweihu" unicode="&#59250;" d="M602.24 28.16l64-64h-448v64z m-503.04 145.92a38.4 38.4 0 0 0-38.4 38.4V729.6a48.64 48.64 0 0 0 48 48h753.92a45.44 45.44 0 0 0 45.44-45.44v-280.32l53.12-30.08V768a64 64 0 0 1-64 64H64a67.84 67.84 0 0 1-46.08-18.56A67.84 67.84 0 0 1 0 768v-586.88a64 64 0 0 1 64-64h334.72v57.6zM988.16 134.4l-136.32 138.88a224.64 224.64 0 0 1 8.32 58.24 217.6 217.6 0 0 1-215.68 218.88 220.16 220.16 0 0 1-76.16-14.08 30.08 30.08 0 0 1-18.56-24.32 32 32 0 0 1 7.68-28.16L640 401.28a41.6 41.6 0 0 0 0-58.24 42.24 42.24 0 0 0-56.96 0L497.28 432a30.08 30.08 0 0 1-49.28-8.32 229.12 229.12 0 0 1-19.2-92.16 217.6 217.6 0 0 1 215.68-218.88 201.6 201.6 0 0 1 70.4 12.8l131.84-133.76a98.56 98.56 0 0 1 70.4-30.08 99.84 99.84 0 0 1 92.16 64 101.76 101.76 0 0 1-21.12 108.8z m-304 297.6l-55.68 55.04h16a157.44 157.44 0 0 0 155.52-155.52 150.4 150.4 0 0 0-10.24-55.68 31.36 31.36 0 0 1 7.04-32l149.12-151.68a41.6 41.6 0 0 0 0-58.24 40.32 40.32 0 0 0-28.16-11.52 42.88 42.88 0 0 0-28.8 11.52l-145.28 147.84a30.08 30.08 0 0 1-21.12 8.96 28.8 28.8 0 0 1-12.8 0 154.24 154.24 0 0 0-64-14.72 157.44 157.44 0 0 0-157.44 155.52v22.4l53.12-53.76a97.28 97.28 0 0 1 70.4-28.8 97.92 97.92 0 0 1 71.04 28.8 88.96 88.96 0 0 1 1.28 131.84z"  horiz-adv-x="1024" />

    
    <glyph glyph-name="16_DH_A_xitongpeizhi" unicode="&#59033;" d="M236.8 51.2v-64h217.6l-64 64zM358.4 185.6V192H128c-19.2 0-38.4 19.2-38.4 38.4V710.4c0 19.2 12.8 32 32 32h716.8c19.2 0 32-12.8 32-32v-166.4l64-32V761.6c0 25.6-19.2 44.8-44.8 44.8H89.6c-32 0-64-25.6-64-64v-569.6c0-25.6 19.2-44.8 44.8-44.8h275.2l12.8 57.6zM697.6 339.2c-57.6 0-102.4-44.8-102.4-102.4 0-57.6 44.8-102.4 102.4-102.4 57.6 0 102.4 44.8 102.4 102.4s-44.8 102.4-102.4 102.4z m38.4-102.4c-12.8-12.8-25.6-12.8-38.4 0-12.8 12.8-12.8 25.6 0 38.4 12.8 12.8 25.6 12.8 38.4 0s12.8-25.6 0-38.4zM985.6 294.4c0 19.2-12.8 25.6-25.6 25.6-44.8 0-76.8 32-76.8 76.8 0 12.8 0 19.2 6.4 32s0 32-12.8 38.4L806.4 512h-12.8c-12.8 0-25.6 0-32-6.4-12.8-19.2-38.4-32-57.6-32-25.6 6.4-44.8 19.2-57.6 32-12.8 6.4-32 12.8-44.8 6.4l-76.8-44.8c-12.8-6.4-19.2-25.6-12.8-38.4 0-12.8 6.4-19.2 6.4-32 0-38.4-32-76.8-76.8-76.8-12.8 0-25.6-6.4-25.6-25.6-6.4-19.2-6.4-38.4-6.4-57.6 0-19.2 0-38.4 6.4-57.6 6.4-19.2 12.8-25.6 25.6-25.6 44.8 0 76.8-32 76.8-76.8 0-12.8 0-19.2-6.4-32s0-32 12.8-38.4l70.4-38.4c12.8-6.4 32 0 38.4 6.4 19.2 19.2 38.4 32 64 32 25.6-6.4 44.8-19.2 64-38.4 6.4-6.4 19.2-12.8 25.6-12.8h12.8l76.8 38.4c12.8 6.4 19.2 25.6 12.8 38.4-6.4 6.4-6.4 19.2-6.4 32 0 44.8 32 76.8 76.8 76.8 12.8 0 19.2 12.8 25.6 25.6 6.4 19.2 6.4 38.4 6.4 57.6 0 32 0 51.2-6.4 70.4z m-70.4-96c-51.2 0-89.6-44.8-89.6-96 0-12.8 0-25.6 6.4-38.4l-57.6-32c-6.4 6.4-12.8 12.8-25.6 19.2-12.8 12.8-32 19.2-51.2 19.2-19.2 0-38.4-6.4-51.2-19.2l-19.2-19.2-64 32c6.4 12.8 12.8 25.6 12.8 38.4 0 51.2-38.4 89.6-89.6 96 0 12.8-6.4 25.6-6.4 44.8 0 12.8 0 25.6 6.4 44.8 51.2-6.4 89.6 38.4 89.6 89.6 0 12.8-6.4 25.6-6.4 38.4l57.6 32s12.8-6.4 19.2-19.2c12.8-12.8 32-19.2 51.2-19.2 19.2 0 38.4 6.4 51.2 19.2L768 448l64-38.4c-6.4-12.8-6.4-25.6-6.4-38.4 0-51.2 38.4-89.6 89.6-96 0-12.8 6.4-25.6 6.4-44.8 0-6.4-6.4-19.2-6.4-32z"  horiz-adv-x="1024" />

    
    <glyph glyph-name="16_DH_A_renwusheji" unicode="&#59053;" d="M884.864 192h-64.128v-80.512h-82.24v-62.976h82.24V-32h64.128v80.512h82.24v62.976h-82.24V192zM947.52 544.064V635.52a96 96 0 0 1-96 96H609.088l-11.2 28.032H147.072a96 96 0 0 1-96-96v-581.632a96 96 0 0 1 96-96h515.072v64H147.072a32 32 0 0 0-32 32V663.552a32 32 0 0 0 32 32h407.424l85.952-215.488h289.6v-230.272h64V544.064zM634.56 667.52h216.96a32 32 0 0 0 32-32V544h-199.68z"  horiz-adv-x="1024" />

    
    <glyph glyph-name="16_DH_A_renwuliebiao" unicode="&#59054;" d="M879.936 849.92H144.064A96.192 96.192 0 0 1 48 753.728V17.92a96.192 96.192 0 0 1 96.064-96h735.872a96.192 96.192 0 0 1 96.064 96V753.792A96.192 96.192 0 0 1 879.936 849.856zM144.064-14.08a32.064 32.064 0 0 0-32.064 32V753.792a32.128 32.128 0 0 0 32.064 32.064h735.872a32.128 32.128 0 0 0 32.064-32.064V17.92a32.064 32.064 0 0 0-32.064-32zM911.808 633.6H112.064v-64h799.744v64zM815.168 741.76a32 32 0 0 1 0-64 32 32 0 0 1 0 64zM687.488 741.76a32 32 0 0 1 0-64 32 32 0 0 1 0 64zM559.808 741.76a32 32 0 1 1 32-32 32 32 0 0 1-32 32zM343.424 171.584h-85.76a32 32 0 0 1 0-64h85.76a32 32 0 0 1 0 64zM798.912 171.584h-256a32 32 0 0 1 0-64h256a32 32 0 0 1 0 64zM798.912 385.92h-256a32 32 0 0 1 0-64h256a32 32 0 1 1 0 64zM231.68 379.392a32 32 0 0 1-27.712-16 32 32 0 0 1 11.648-43.712l110.848-64a32 32 0 1 1 32 55.424l-110.784 64a31.872 31.872 0 0 1-16 4.288zM470.592 537.024a32 32 0 0 1-27.776-16l-128-221.632a32 32 0 0 1 11.648-43.712 32 32 0 0 1 43.712 11.712L498.24 488.96a32 32 0 0 1-27.648 48z"  horiz-adv-x="1024" />

    
    <glyph glyph-name="16_DH_A_yonghuguanli" unicode="&#59483;" d="M774.4 601.6c0 166.4-128 294.4-288 294.4S198.4 761.6 198.4 601.6c0-108.8 57.6-211.2 147.2-262.4-172.8-64-300.8-236.8-300.8-435.2 6.4-19.2 19.2-32 38.4-32s32 12.8 32 32c0 217.6 172.8 396.8 390.4 396.8H512c140.8 12.8 262.4 140.8 262.4 300.8zM486.4 364.8c-121.6 0-224 102.4-224 230.4s102.4 230.4 224 230.4 224-102.4 224-230.4c0-121.6-102.4-230.4-224-230.4z m57.6-166.4c0-19.2 12.8-32 32-32h364.8c19.2 0 32 12.8 32 32s-12.8 32-32 32H576c-12.8 0-32-12.8-32-32z m396.8-96H576c-19.2 0-32-12.8-32-32s12.8-32 32-32h364.8c19.2 0 32 12.8 32 32 0 12.8-12.8 32-32 32z m0-147.2H576c-19.2 0-32-12.8-32-32s12.8-32 32-32h364.8c19.2 0 32 12.8 32 32 0 12.8-12.8 32-32 32z"  horiz-adv-x="1024" />

    
    <glyph glyph-name="16_DH_A_meijuzidian" unicode="&#59032;" d="M339.2 569.6h345.6a29.312 29.312 0 0 1 25.6 32 29.312 29.312 0 0 1-25.6 32H339.2a30.208 30.208 0 0 1-32-32 34.304 34.304 0 0 1 32-32z m0-192h345.6a29.312 29.312 0 0 1 25.6 32 29.312 29.312 0 0 1-25.6 32H339.2a34.304 34.304 0 0 1-32-32 30.208 30.208 0 0 1 32-32zM928 134.4V790.4a87.488 87.488 0 0 1-89.6 89.6H185.6a87.488 87.488 0 0 1-89.6-89.6V44.8a156.032 156.032 0 0 1 147.2-160h684.8v64c-34.56 0-66.304 38.464-66.304 89.664 0 57.6 31.744 95.936 66.304 95.936zM192 816h640a30.208 30.208 0 0 0 32-32V192H243.2a134.784 134.784 0 0 1-83.2-32V784a30.208 30.208 0 0 0 32 32z m-32-774.208A80.128 80.128 0 0 0 246.208 128h583.488a139.648 139.648 0 0 1-33.152-86.208 158.4 158.4 0 0 1 33.152-92.8H246.208a84.672 84.672 0 0 0-86.208 92.8z"  horiz-adv-x="1024" />

    
    <glyph glyph-name="16_DH_A_duoyuyanguanli" unicode="&#59034;" d="M892.48 93.632a478.272 478.272 0 0 1 0.384 581.76l1.024 0.512-2.688 1.728A479.424 479.424 0 0 1 513.216 865.408L512 865.536h-1.472a480.768 480.768 0 1 1 0-961.536h1.408l1.344 0.128a479.424 479.424 0 0 1 376.448 185.728l4.48 2.944zM480 637.952a683.008 683.008 0 0 0-95.872 11.2A270.848 270.848 0 0 0 480 791.488z m0-63.552V416H343.168a830.4 830.4 0 0 0 22.592 172.16 748.608 748.608 0 0 1 114.24-13.76z m0-222.4v-157.696a748.416 748.416 0 0 1-114.048-13.888A828.608 828.608 0 0 0 343.232 352z m0-221.312v-152.64a269.952 269.952 0 0 0-95.552 141.44 682.88 682.88 0 0 0 95.552 11.2z m64 0a683.328 683.328 0 0 0 95.36-10.944 270.656 270.656 0 0 0-95.36-141.568z m0 63.68V352h136.576a828.8 828.8 0 0 0-22.656-171.328 749.12 749.12 0 0 1-113.92 13.696z m0 221.632V574.336a748.928 748.928 0 0 1 114.112 13.76 830.656 830.656 0 0 0 22.528-172.096z m0 221.952V791.36a271.424 271.424 0 0 0 95.68-142.336 682.752 682.752 0 0 0-95.68-11.072z m101.504 140.672a416.448 416.448 0 0 0 142.592-83.904 701.76 701.76 0 0 0-86.4-30.72 476.608 476.608 0 0 1-56.192 114.624z m-323.392-114.56a703.168 703.168 0 0 0-88.256 31.552 416.32 416.32 0 0 0 145.28 84.352 474.752 474.752 0 0 1-56.96-115.84z m-18.304-62.08A898.432 898.432 0 0 1 279.232 416H95.296a414.528 414.528 0 0 0 91.968 231.36 755.52 755.52 0 0 1 116.544-45.44zM279.232 352a897.088 897.088 0 0 1 24.832-185.344 755.456 755.456 0 0 1-116.224-45.248A414.592 414.592 0 0 0 95.36 352z m43.2-247.424a473.92 473.92 0 0 1 56.704-115.008 416.32 416.32 0 0 0-144.512 83.648 703.36 703.36 0 0 0 87.808 31.36z m379.008 0.32a702.08 702.08 0 0 0 86.144-30.592 416.384 416.384 0 0 0-142.08-83.392 475.968 475.968 0 0 1 55.936 113.92z m18.432 62.08a897.152 897.152 0 0 1 24.704 185.024h180.992a414.464 414.464 0 0 0-91.328-229.12 755.584 755.584 0 0 1-114.368 44.16zM925.696 416h-181.12a898.24 898.24 0 0 1-24.576 185.856 755.456 755.456 0 0 1 114.56 44.288A414.464 414.464 0 0 0 925.76 416z"  horiz-adv-x="1024" />

    
    <glyph glyph-name="16_DH_A_shouye" unicode="&#59038;" d="M940.288 397.824l-114.688 108.8V674.112a32 32 0 0 1-32 32H621.184a30.336 30.336 0 0 1-4.928-1.024L535.68 781.632l-0.256 0.448-0.832 0.576-0.64 0.64c-0.64 0.64-1.472 0.768-2.176 1.344a31.744 31.744 0 0 1-8 5.056 30.336 30.336 0 0 1-4.736 1.024 21.376 21.376 0 0 1-13.952 0 30.336 30.336 0 0 1-4.672-1.024 31.68 31.68 0 0 1-8.064-5.056c-0.64-0.576-1.536-0.768-2.176-1.344l-0.64-0.64-0.832-0.576-0.32-0.448-404.608-383.808a32 32 0 0 1 44.032-46.464l41.6 39.424v-350.72a64 64 0 0 1 63.936-63.872h139.328v-0.064h64l0.448 226.56 171.136 0.128-0.64-226.688h64v0.064h123.904a64 64 0 0 1 63.936 63.872v346.24l36.864-34.944a32 32 0 1 1 44.032 46.464zM761.6 642.176v-74.88l-78.912 74.88z m-89.856-601.984l0.448 162.624a63.872 63.872 0 0 1-63.808 63.808H437.12a63.872 63.872 0 0 1-63.808-63.808l-0.448-162.624-139.52-0.128V451.456L512 715.84l283.392-268.8v-406.848z"  horiz-adv-x="1024" />

    
    <glyph glyph-name="16_DH_A_quanxianguanli" unicode="&#59051;" d="M539.392 75.2h96a32 32 0 0 0 0-64h-128a31.872 31.872 0 0 0-32 32V365.376a256 256 0 0 0-215.872 318.592l-124.224 0.128a28.992 28.992 0 0 1-31.36-28.992l-0.768-665.6a32 32 0 0 1 32-32l752.896-1.92a32 32 0 0 1 32 32V652.608a32 32 0 0 1-32 32h-133.056a256.192 256.192 0 0 0-215.68-319.168v-119.04h96a32 32 0 0 0 0-64h-96zM285.632 747.456a256.128 256.128 0 0 0 443.52 0h191.104a64 64 0 0 0 64-64V-43.52a64 64 0 0 0-64-64L103.68-105.6a64 64 0 0 0-64 64V686.208a61.248 61.248 0 0 0 63.552 61.184z m221.76-320a192 192 0 1 1-192 192 192 192 0 0 1 192-192z"  horiz-adv-x="1024" />

    
    <glyph glyph-name="16_DH_A_banbenxinxi" unicode="&#59052;" d="M844.224-94.976H182.592a96.128 96.128 0 0 0-96.064 96.064V767.488a96.128 96.128 0 0 0 96 96h481.28l276.48-253.44v-608.96a96.128 96.128 0 0 0-96-96.064zM182.592 799.552a32.064 32.064 0 0 1-32.064-32.064v-766.4a32.128 32.128 0 0 1 32-32.064h661.76a32.128 32.128 0 0 1 32 32.064V581.952l-237.376 217.6zM190.976 416.256m32 0l587.776 0q32 0 32-32l0 0q0-32-32-32l-587.776 0q-32 0-32 32l0 0q0 32 32 32ZM190.976 169.216m32 0l587.776 0q32 0 32-32l0 0q0-32-32-32l-587.776 0q-32 0-32 32l0 0q0 32 32 32ZM190.976 663.36m32 0l257.024 0q32 0 32-32l0 0q0-32-32-32l-257.024 0q-32 0-32 32l0 0q0 32 32 32ZM847.36 609.728h-151.232a32.064 32.064 0 0 0-32 32V778.24l-64 58.816v-195.2a96.128 96.128 0 0 1 96-96h220.928z"  horiz-adv-x="1024" />

    
    <glyph glyph-name="16_DH_A_shujuluru" unicode="&#59055;" d="M136.443946 509.525876m31.92418 0l191.54508 0q31.92418 0 31.92418-31.92418l0 0q0-31.92418-31.92418-31.92418l-191.54508 0q-31.92418 0-31.92418 31.92418l0 0q0 31.92418 31.92418 31.92418ZM136.443946 382.084549m31.92418 0l191.54508 0q31.92418 0 31.92418-31.92418l0 0q0-31.92418-31.92418-31.92418l-191.54508 0q-31.92418 0-31.92418 31.92418l0 0q0 31.92418 31.92418 31.92418ZM723.721162-32.355157a31.988028 31.988028 0 0 0-31.92418-31.92418H105.477491a31.988028 31.988028 0 0 0-31.988028 31.92418V604.979174a31.988028 31.988028 0 0 0 31.92418 31.988029h409.331836l48.460906 63.84836h-457.792742a95.900237 95.900237 0 0 1-95.772541-95.77254v-637.270483a95.900237 95.900237 0 0 1 95.772541-95.836388h586.255642a95.900237 95.900237 0 0 1 95.836389 95.77254V490.052126l-63.84836-84.152138zM185.479486 739.890759a31.988028 31.988028 0 0 0 31.92418 31.924181h399.754583l48.397057 63.84836H217.467515a95.900237 95.900237 0 0 1-95.836389-95.772541v-38.947499h63.84836zM843.500686 563.796982v-461.112857a32.051877 32.051877 0 0 0-31.92418-32.051877h-21.963836v-63.84836h21.899987a95.900237 95.900237 0 0 1 95.836389 95.900237v545.264996zM108.687327 67.434569m25.106777 19.718089l150.640659 118.308536q25.106777 19.718089 44.824866-5.388687l0 0q19.718089-25.106777-5.388687-44.824866l-150.64066-118.308536q-25.106777-19.718089-44.824865 5.388688l0 0q-19.718089 25.106777 5.388687 44.824865ZM298.783534 225.211674m25.098859-19.728167l150.593155-118.368997q25.098859-19.728166 5.370693-44.827025l0 0q-19.728166-25.098859-44.827025-5.370693l-150.593155 118.368997q-25.098859 19.728166-5.370693 44.827025l0 0q19.728166 25.098859 44.827025 5.370693ZM410.06006 67.473875m25.106776 19.718089l181.321141 142.404041q25.106777 19.718089 44.824865-5.388688l0 0q19.718089-25.106777-5.388687-44.824865l-181.32114-142.404041q-25.106777-19.718089-44.824866 5.388687l0 0q-19.718089 25.106777 5.388687 44.824866ZM454.923749 285.422968m30.889385-8.062204l158.524327-41.37523q30.889386-8.062204 22.827182-38.95159l0 0q-8.062204-30.889386-38.95159-22.827181l-158.524326 41.37523q-30.889386 8.062204-22.827182 38.95159l0 0q8.062204 30.889386 38.951589 22.827181ZM795.103629 818.551939l88.238434-75.660307-241.538347-281.698965-88.74922-14.046639 0.446938 89.706946 241.602195 281.698965M789.101883 887.06123a38.9475 38.9475 0 0 1-30.391819-12.705824l-260.50131-303.790498a37.032049 37.032049 0 0 1-8.55568-24.262377l-0.638484-131.846863a39.522135 39.522135 0 0 1 37.287443-35.81893 26.497069 26.497069 0 0 1 4.150143 0.319242l130.186806 20.62302a37.032049 37.032049 0 0 1 22.730017 12.131188l260.501309 303.790498a55.164983 55.164983 0 0 1-17.111361 74.255643L834.753461 868.672902a71.957102 71.957102 0 0 1-45.58773 18.324479z"  horiz-adv-x="1024" />

    
    <glyph glyph-name="16_DH_A_zhutiguanli" unicode="&#59056;" d="M204.032 603.072m32 0l328 0q32 0 32-32l0 0q0-32-32-32l-328 0q-32 0-32 32l0 0q0 32 32 32ZM204.032 603.072m32 0l328 0q32 0 32-32l0 0q0-32-32-32l-328 0q-32 0-32 32l0 0q0 32 32 32ZM204.032 278.656m32 0l440 0q32 0 32-32l0 0q0-32-32-32l-440 0q-32 0-32 32l0 0q0 32 32 32ZM204.032 150.656m32 0l440 0q32 0 32-32l0 0q0-32-32-32l-440 0q-32 0-32 32l0 0q0 32 32 32ZM684.032 571.072m-32 0a32 32 0 1 1 64 0 32 32 0 1 1-64 0ZM869.888 870.912H274.368a96.128 96.128 0 0 1-96-96v-39.04h64v39.04a32.064 32.064 0 0 0 32 32h595.52a32.064 32.064 0 0 0 32-32v-638.72a32.128 32.128 0 0 0-32-32.128h-21.952v-64h21.952a96.128 96.128 0 0 1 96 96.064v638.72a96.128 96.128 0 0 1-96 96.064zM749.824 735.68H162.176a96.128 96.128 0 0 1-96-96.064v-638.72a96.128 96.128 0 0 1 96-96.128h587.648a96.128 96.128 0 0 1 96 96.064v638.72a96.128 96.128 0 0 1-96 96.128z m32-734.848a32.064 32.064 0 0 0-32-32H162.176a32.064 32.064 0 0 0-32 32V406.656h651.712z m0 469.824H130.176v168.96a32.064 32.064 0 0 0 32.064 32h587.648a32.064 32.064 0 0 0 32-32z"  horiz-adv-x="1024" />

    
    <glyph glyph-name="16_DH_A_rizhichaxun" unicode="&#59057;" d="M802.88 424.128V689.856a96.192 96.192 0 0 1-96 96H152.96a96.256 96.256 0 0 1-96.128-96v-607.872a96.192 96.192 0 0 1 96.128-96H550.4a256.064 256.064 0 1 1 252.416 438.144zM153.024 49.92a32.128 32.128 0 0 0-32.128 32.064V689.92a32.128 32.128 0 0 0 32.128 32h553.792a32.064 32.064 0 0 0 32.064-32v-250.88a252.48 252.48 0 0 1-27.776 2.752A255.808 255.808 0 0 1 493.44 49.92z m558.208-60.736a195.712 195.712 0 1 0 195.712 195.712 195.712 195.712 0 0 0-195.712-195.712zM223.936 839.104m32.064 0l0.064 0q32.064 0 32.064-32.064l0-106.56q0-32.064-32.064-32.064l-0.064 0q-32.064 0-32.064 32.064l0 106.56q0 32.064 32.064 32.064ZM565.248 839.104m32.064 0l0.064 0q32.064 0 32.064-32.064l0-106.56q0-32.064-32.064-32.064l-0.064 0q-32.064 0-32.064 32.064l0 106.56q0 32.064 32.064 32.064ZM170.688 555.136m32 0l448 0q32 0 32-32l0 0q0-32-32-32l-448 0q-32 0-32 32l0 0q0 32 32 32ZM170.688 384.512m32 0l220.416 0q32 0 32-32l0 0q0-32-32-32l-220.416 0q-32 0-32 32l0 0q0 32 32 32ZM170.688 213.824m32 0l160.256 0q32 0 32-32l0 0q0-32-32-32l-160.256 0q-32 0-32 32l0 0q0 32 32 32ZM682.688 327.104m31.872 0l-0.064 0q31.872 0 31.872-31.872l0-163.84q0-31.872-31.872-31.872l0.064 0q-31.872 0-31.872 31.872l0 163.84q0 31.872 31.872 31.872ZM682.688 162.944m31.68 0l107.328 0q31.68 0 31.68-31.68l0 0q0-31.68-31.68-31.68l-107.328 0q-31.68 0-31.68 31.68l0 0q0 31.68 31.68 31.68Z"  horiz-adv-x="1024" />

    
    <glyph glyph-name="16_DH_A_wannengtubiao" unicode="&#59059;" d="M221.952 640h192.256a32 32 0 0 1 0 64H221.952a32 32 0 0 1 0-64zM221.568 512h257.024a32 32 0 0 1 0 64H221.568a32 32 0 0 1 0-64zM662.4 863.296H181.12a96.128 96.128 0 0 1-96-96.064v-766.4a96.128 96.128 0 0 1 96-96.128h661.76a96.128 96.128 0 0 1 96 96.128V609.856z m0.32-87.104l181.888-166.72h-149.888a32.064 32.064 0 0 0-32 32z m212.16-775.36a32.128 32.128 0 0 0-32-32.128H181.12a32.128 32.128 0 0 0-32 32.128V767.232a32.064 32.064 0 0 0 32 32h417.6v-157.696a96.128 96.128 0 0 1 96-96h180.16zM342.144 417.664L317.312 352.64l307.008 2.752s51.648 5.504 52.736-44.096a52.48 52.48 0 0 0-49.6-53.12H519.232l-18.048-61.44s75.52 0 118.4-4.672c23.68-2.56 33.536-31.104 24.768-57.856a65.152 65.152 0 0 0-45.056-41.344l-221.056-4.736 73.28 225.536-67.136-0.896L288 24.32s272 0.64 306.304 2.24a121.6 121.6 0 0 1 117.824 104.512 101.76 101.76 0 0 1-45.184 91.712 106.304 106.304 0 0 1 66.56 118.016 116.928 116.928 0 0 1-88 79.104z"  horiz-adv-x="1024" />

    
    <glyph glyph-name="16_DH_A_cunchubiaoguanli" unicode="&#59060;" d="M512.256 865.792l0.128-64 371.072-209.92-0.448-416.512-371.392-209.152-371.072 209.92 0.448 416.512 371.2 209.152h0.064v64m0 0A64.256 64.256 0 0 1 480.704 857.6l-371.2-209.152a64.256 64.256 0 0 1-32.64-55.936l-0.32-416.32a64.256 64.256 0 0 1 32.64-56l370.88-209.6a64.256 64.256 0 0 1 63.232-0.064l371.2 209.152a64.256 64.256 0 0 1 32.64 55.936l0.32 416.32a64.256 64.256 0 0 1-32.64 56L543.872 857.472a64.192 64.192 0 0 1-31.616 8.32zM710.848 486.016a195.264 195.264 0 0 1-390.528 4.032 194.816 194.816 0 1 1 191.552-339.2 193.216 193.216 0 0 1 97.92-27.008 195.072 195.072 0 0 1 101.12 362.24zM515.392 616.64a131.776 131.776 0 0 0 128.896-105.152A185.28 185.28 0 0 1 512 487.808a193.536 193.536 0 0 1-97.536 27.136A127.616 127.616 0 0 1 417.92 450.56a130.24 130.24 0 0 0 40.768-8.32 193.856 193.856 0 0 1-31.488-54.144 131.072 131.072 0 0 0 88.128 228.544zM512 406.528a130.24 130.24 0 0 0 27.84-50.112 123.136 123.136 0 0 0-24.448-2.88 130.176 130.176 0 0 0-30.848 4.032A130.88 130.88 0 0 0 512 406.528zM282.688 319.36a129.536 129.536 0 0 0 49.024 100.864 194.944 194.944 0 0 1 82.56-101.76 194.24 194.24 0 0 1 35.84-111.488 126.72 126.72 0 0 1 40.768 23.68 125.184 125.184 0 0 1 11.648 13.056 131.712 131.712 0 0 0-20.032 49.152 194.816 194.816 0 0 1 32.896-3.328 166.656 166.656 0 0 1 27.456 2.432 131.52 131.52 0 0 0-260.16 27.392z m327.04-131.52a125.44 125.44 0 0 0-44.288 8.96 191.68 191.68 0 0 1-0.512 245.76 122.112 122.112 0 0 0 76.16 4.224 131.648 131.648 0 0 0-17.28-35.968 192.96 192.96 0 0 0 16.64-74.88 197.568 197.568 0 0 1 56.832 80.96 131.072 131.072 0 0 0-87.488-229.12z"  horiz-adv-x="1024" />

    
    <glyph glyph-name="16_DH_A_zhibiaoguanli" unicode="&#59063;" d="M256 800H128c-19.2 0-32-12.8-32-32v-96h-64v128c0 38.4 25.6 64 64 64H256v-64z m0-832v-64H96c-38.4 0-64 25.6-64 64v128h64V0c0-19.2 12.8-32 32-32h128z m512 832v64h160c38.4 0 64-25.6 64-64v-128h-64V768c0 19.2-12.8 32-32 32h-128z m0-832h128c6.4 0 19.2 6.4 25.6 6.4 6.4 6.4 6.4 12.8 6.4 25.6v96h64v-128c0-38.4-25.6-64-64-64H768v64zM512 768C300.8 768 128 595.2 128 384s172.8-384 384-384 384 172.8 384 384-172.8 384-384 384z m300.8-492.8l-32 19.2c-12.8 6.4-32 0-44.8-12.8-6.4-12.8 0-32 12.8-44.8l38.4-19.2c-89.6-153.6-288-198.4-441.6-102.4-44.8 25.6-76.8 57.6-102.4 102.4l38.4 19.2c12.8 6.4 19.2 25.6 12.8 44.8-12.8 6.4-32 12.8-44.8 6.4l-32-19.2c-32 76.8-32 160 0 236.8l32-19.2c12.8-6.4 32-6.4 44.8 12.8 6.4 12.8 6.4 32-12.8 44.8l-32 19.2C300.8 640 390.4 691.2 486.4 704v-38.4c0-19.2 12.8-32 32-32s32 12.8 32 32V704c96-12.8 172.8-64 224-134.4l-32-25.6c-12.8-12.8-19.2-32-6.4-44.8 12.8-12.8 32-19.2 44.8-6.4l32 19.2c19.2-51.2 32-102.4 25.6-160-12.8-25.6-19.2-51.2-25.6-76.8zM512 435.2c-6.4 0-19.2 0-25.6-6.4L409.6 512c-12.8 12.8-32 12.8-44.8 0-12.8-12.8-12.8-32 0-44.8l76.8-76.8 6.4-6.4c0-6.4-6.4-12.8-6.4-19.2 0-38.4 32-70.4 70.4-70.4 38.4 0 70.4 32 70.4 70.4 6.4 38.4-25.6 70.4-70.4 70.4z"  horiz-adv-x="1024" />

    
    </font>
</defs>
</svg>
